<?xml version="1.0" encoding="UTF-8" standalone="no"?>
<svg xmlns:dc="http://purl.org/dc/elements/1.1/" xmlns:cc="http://creativecommons.org/ns#" xmlns:rdf="http://www.w3.org/1999/02/22-rdf-syntax-ns#" xmlns:svg="http://www.w3.org/2000/svg" xmlns="http://www.w3.org/2000/svg" xmlns:sodipodi="http://sodipodi.sourceforge.net/DTD/sodipodi-0.dtd" xmlns:inkscape="http://www.inkscape.org/namespaces/inkscape" id="svg8" version="1.1" viewBox="0 0 423.33334 101.90352" height="101.90353mm" width="423.33334mm" sodipodi:docname="banner.svg" inkscape:version="0.92.4 (unknown)">
  <sodipodi:namedview pagecolor="#ffffff" bordercolor="#666666" borderopacity="1" objecttolerance="10" gridtolerance="10" guidetolerance="10" inkscape:pageopacity="0" inkscape:pageshadow="2" inkscape:window-width="1920" inkscape:window-height="988" id="namedview1247" showgrid="false" inkscape:zoom="0.50823299" inkscape:cx="744.52272" inkscape:cy="179.4124" inkscape:window-x="0" inkscape:window-y="37" inkscape:window-maximized="1" inkscape:current-layer="svg8" />
  <defs id="defs2">
    <clipPath clipPathUnits="userSpaceOnUse" id="clipPath4772">
      <rect style="opacity:1;vector-effect:none;fill:#e7b800;fill-opacity:1;stroke:none;stroke-width:29.61765671;stroke-linecap:butt;stroke-linejoin:round;stroke-miterlimit:4;stroke-dasharray:none;stroke-dashoffset:0;stroke-opacity:1" id="rect4774" width="605.75629" height="605.75629" x="-2.8863487" y="261.34875" />
    </clipPath>
  </defs>
  <metadata id="metadata5">
    <rdf:RDF>
      <cc:Work rdf:about="">
        <dc:format>image/svg+xml</dc:format>
        <dc:type rdf:resource="http://purl.org/dc/dcmitype/StillImage" />
        <dc:title />
      </cc:Work>
    </rdf:RDF>
  </metadata>
  <rect style="opacity:1;vector-effect:none;fill:#004b60;fill-opacity:1;stroke:none;stroke-width:8.68843079;stroke-linecap:butt;stroke-linejoin:round;stroke-miterlimit:4;stroke-dasharray:none;stroke-dashoffset:0;stroke-opacity:1" id="rect4776" width="423.33334" height="101.90353" x="-2.8906248e-07" y="3.9160156e-07" />
  <g id="g1162" clip-path="none" transform="matrix(0.87687993,0,0,0.87687993,230.65685,-25.390297)">
    <rect ry="1.4841589" rx="3.7674961" y="35.926933" x="-239.47964" height="66.480225" width="86.440384" id="rect7982" style="fill:#847ee0;fill-opacity:1;stroke:none;stroke-width:0.58367282;stroke-linecap:round;stroke-linejoin:round;stroke-miterlimit:4;stroke-dasharray:none;stroke-opacity:1" />
    <path inkscape:connector-curvature="0" id="path5050" d="m -162.63065,92.181623 c -21.51473,-4.631643 -32.27209,8.068027 -44.07531,7.320984 -11.80322,-0.747039 -22.8594,-5.677498 -30.03098,-6.125722 -4.99627,6.330329 -11.27407,16.632345 -3.06464,22.749175 8.20942,6.11682 75.65545,4.18519 81.28937,-0.96582 5.63392,-5.15101 1.28775,-19.638221 -4.11844,-22.978617 z" style="fill:#bcb3f5;fill-opacity:1;fill-rule:evenodd;stroke:none;stroke-width:0.19455761px;stroke-linecap:butt;stroke-linejoin:miter;stroke-opacity:1" />
    <path inkscape:connector-curvature="0" id="path7191" d="m -221.36126,85.821815 c -1.28654,4.696554 -2.29747,15.651515 -2.93201,19.993345 -0.15532,-0.0514 -0.32339,-0.0831 -0.49629,-0.0755 -0.79308,0.035 -1.40398,0.73101 -1.36774,1.55144 0.0362,0.82042 0.70583,1.45377 1.49891,1.41875 0.54853,-0.0242 0.99472,-0.37239 1.21611,-0.85096 0.23719,0.51534 0.76239,0.86704 1.36383,0.84048 0.79308,-0.035 1.41099,-0.71003 1.37597,-1.50312 -0.035,-0.79308 -0.70977,-1.40491 -1.50285,-1.36989 -0.002,1e-4 -0.004,1.7e-4 -0.006,2e-4 0.0987,-0.70735 2.06181,-13.755965 2.29858,-15.066883 0.2442,-1.352027 0.10126,-10.595178 -1.44843,-4.937986 z" style="fill:#9af286;fill-opacity:1;fill-rule:evenodd;stroke:#3e7e42;stroke-width:0.5803653;stroke-linecap:butt;stroke-linejoin:miter;stroke-miterlimit:4;stroke-dasharray:none;stroke-opacity:1" />
    <path inkscape:connector-curvature="0" id="path6528" d="m -161.24869,104.11616 c -6.59973,2.73647 -28.16958,4.34617 -40.24226,4.50713 -12.07268,0.16097 -28.65249,-0.80484 -35.8961,-3.05841 -3.70164,-1.15162 -7.26648,45.4965 -5.65678,49.68169 1.60969,4.1852 68.63118,10.56559 82.63549,-4.40453 14.00431,-14.97013 0.12547,-44.31134 -0.84035,-46.72588 z" style="fill:#847ee0;fill-opacity:1;fill-rule:evenodd;stroke:#000000;stroke-width:0.81714189;stroke-linecap:butt;stroke-linejoin:miter;stroke-miterlimit:4;stroke-dasharray:none;stroke-opacity:1" />
    <path inkscape:connector-curvature="0" id="path3574" d="m -235.49696,119.89024 c 24.6441,4.05644 47.95291,3.64554 71.642,-0.50215" style="fill:none;fill-opacity:0.75;fill-rule:evenodd;stroke:none;stroke-width:0.19455761px;stroke-linecap:butt;stroke-linejoin:miter;stroke-opacity:1" />
    <ellipse id="path4320" style="fill:#bcb3f5;fill-opacity:1;stroke:none;stroke-width:0.68214118;stroke-linecap:round;stroke-linejoin:round;stroke-miterlimit:4;stroke-dasharray:none;stroke-opacity:1" cx="-184.35968" cy="49.42667" rx="18.52161" ry="16.620258" />
    <path inkscape:connector-curvature="0" id="path3571" d="m -160.03095,60.057614 c -6.59973,-2.736472 -28.16959,-4.346164 -40.24226,-4.507133 -12.07268,-0.160969 -28.65249,0.804844 -35.8961,3.058412 -3.70165,1.151622 -7.26648,-45.496497 -5.65679,-49.6816914 1.60969,-4.1851946 68.63119,-10.5655847 82.6355,4.4045374 14.00431,14.970121 0.12546,44.311339 -0.84035,46.725875 z" style="fill:#847ee0;fill-opacity:1;fill-rule:evenodd;stroke:#000000;stroke-width:0.81714189;stroke-linecap:butt;stroke-linejoin:miter;stroke-miterlimit:4;stroke-dasharray:none;stroke-opacity:1" />
    <path inkscape:connector-curvature="0" d="m -222.78595,47.663754 c -7.64918,6.850013 -21.37317,73.246836 -14.26026,79.211256 7.11292,5.96442 65.77392,6.65864 71.93893,-0.41971 6.16501,-7.07834 -5.72955,-72.339522 -12.8079,-78.504533 -7.07834,-6.165014 -37.22159,-7.137028 -44.87077,-0.287013 z m -54.76701,-23.824387 520.80934,0.303554 c 2.08719,0 3.7675,0.661934 3.7675,1.484158 l -1.40059,147.624091 c 0,0.82222 -1.6803,1.48416 -3.76749,1.48416 l -520.80934,-0.30355 c -2.0872,0 -3.7675,-0.66194 -3.7675,-1.48417 l 1.40058,-147.624086 c 0,-0.822224 1.68031,-1.484157 3.7675,-1.484157 z" style="fill:#004b60;fill-opacity:1;fill-rule:evenodd;stroke:#000000;stroke-width:1.14788985;stroke-linecap:butt;stroke-linejoin:miter;stroke-miterlimit:4;stroke-dasharray:none;stroke-opacity:1" id="path1336" sodipodi:nodetypes="sssssccccccccc" />
    <path inkscape:connector-curvature="0" id="path3572" d="m -160.28991,65.348919 c 3.62169,1.115817 7.16851,-1.170703 9.25256,0.143525 2.08406,1.314229 3.9032,3.194535 7.18191,2.894113 3.24288,-0.297138 7.3847,-1.859484 7.3847,-1.859484 0,0 -4.07076,-1.756038 -5.82683,-3.753392 -1.75608,-1.997352 -2.58952,-4.063606 -5.67178,-5.166423 -4.18578,-1.497648 -7.85571,-0.705755 -9.59001,-1.688176 -2.18632,1.902964 -2.73055,9.429837 -2.73055,9.429837 z" style="color:#000000;display:inline;overflow:visible;visibility:visible;opacity:1;fill:#847ee0;fill-opacity:1;fill-rule:nonzero;stroke:none;stroke-width:0.58367282;stroke-linecap:round;stroke-linejoin:round;stroke-miterlimit:4;stroke-dasharray:none;stroke-dashoffset:0;stroke-opacity:1;marker:none;marker-start:none;marker-mid:none;marker-end:none" />
    <path inkscape:connector-curvature="0" id="path3586" d="m -156.39212,57.588334 -1.80041,6.471626 3.24152,-0.375977" style="fill:none;fill-opacity:0.75;fill-rule:evenodd;stroke:#ffffff;stroke-width:0.94613361;stroke-linecap:round;stroke-linejoin:round;stroke-miterlimit:4;stroke-dasharray:none;stroke-opacity:1" />
    <path inkscape:connector-curvature="0" id="path3588" d="m -152.19785,57.922619 -1.09757,5.712079" style="fill:none;fill-opacity:0.75;fill-rule:evenodd;stroke:#ffffff;stroke-width:0.94613361;stroke-linecap:round;stroke-linejoin:round;stroke-miterlimit:4;stroke-dasharray:none;stroke-opacity:1" />
    <path inkscape:connector-curvature="0" id="path3590" d="m -147.32065,60.051627 c -0.68257,-1.001321 -3.23777,-2.531211 -3.50119,-0.377375 -0.26343,2.153842 3.90702,1.628449 2.87551,4.216378 -0.84051,2.108721 -3.54346,-0.724425 -3.54346,-0.724425" style="fill:none;fill-opacity:0.75;fill-rule:evenodd;stroke:#ffffff;stroke-width:0.94613361;stroke-linecap:round;stroke-linejoin:round;stroke-miterlimit:4;stroke-dasharray:none;stroke-opacity:1" />
    <path inkscape:connector-curvature="0" id="path3592" d="m -146.92474,66.536555 1.16722,-5.434678 c 0,0 2.68171,1.953949 2.12667,3.25051 -0.75433,1.762066 -2.59542,-0.681469 -2.59542,-0.681469" style="fill:none;fill-opacity:0.75;fill-rule:evenodd;stroke:#ffffff;stroke-width:0.94613361;stroke-linecap:round;stroke-linejoin:round;stroke-miterlimit:4;stroke-dasharray:none;stroke-opacity:1" />
    <g aria-label="Made with secret" transform="matrix(0.19452253,-0.00369381,0.00369381,0.19452253,-251.51338,-24.975281)" style="font-style:normal;font-variant:normal;font-weight:normal;font-stretch:normal;font-size:48px;line-height:0%;font-family:'Franklin Gothic Medium';text-align:start;writing-mode:lr-tb;text-anchor:start;fill:#ffffff;fill-opacity:1;stroke:#ffffff;stroke-width:1.82500005;stroke-linecap:round;stroke-linejoin:round;stroke-miterlimit:4;stroke-dasharray:none;stroke-opacity:1" id="text2788">
      <path inkscape:connector-curvature="0" d="m 104.61389,730.47925 -5.820072,-0.85691 4.079722,-27.70909 -12.844604,26.4186 -2.99119,-0.44041 -4.731533,-29.0064 -4.079724,27.70909 -4.660692,-0.68622 4.660104,-31.65096 8.927195,1.31439 3.630728,21.35823 9.516596,-19.4225 8.97357,1.32122 z" style="font-style:normal;font-variant:normal;font-weight:normal;font-stretch:normal;font-size:48px;line-height:125%;font-family:'Franklin Gothic Medium';text-align:start;writing-mode:lr-tb;text-anchor:start;fill:#ffffff;fill-opacity:1;stroke:#ffffff;stroke-width:1.82500005;stroke-linecap:round;stroke-linejoin:round;stroke-miterlimit:4;stroke-dasharray:none;stroke-opacity:1" id="path912" />
      <path inkscape:connector-curvature="0" d="m 131.42861,733.65306 -5.05102,-0.59493 q -0.42279,-2.22096 -0.25539,-4.84439 -2.73504,4.98775 -8.57746,4.2996 -3.51477,-0.41398 -5.41495,-2.71455 -1.87417,-2.32111 -1.50679,-5.44017 0.95409,-8.10026 15.17609,-6.42512 0.55863,0.0658 1.51023,0.20148 l 0.20837,-1.76902 q 0.43043,-3.65443 -4.55076,-4.24114 -4.84153,-0.57026 -5.92371,3.0074 l -4.43615,-1.20689 q 0.71787,-2.88899 3.59347,-4.46185 2.87835,-1.59613 7.90609,-1.00394 2.72336,0.32077 4.391,0.98918 1.67037,0.64514 2.72862,1.87896 1.061,1.21055 1.35246,2.54285 0.31749,1.31177 -0.0389,4.33773 l -1.25019,10.61412 q -0.27142,2.30439 0.13901,4.83068 z M 126.9721,720.998 q -10.28825,-1.2118 -10.86673,3.69956 -0.17273,1.46643 0.72807,2.63451 0.92682,1.14754 3.02171,1.39429 3.02596,0.35641 4.78703,-1.37133 1.78708,-1.74827 2.07495,-4.19231 z" style="font-style:normal;font-variant:normal;font-weight:normal;font-stretch:normal;font-size:48px;line-height:125%;font-family:'Franklin Gothic Medium';text-align:start;writing-mode:lr-tb;text-anchor:start;fill:#ffffff;fill-opacity:1;stroke:#ffffff;stroke-width:1.82500005;stroke-linecap:round;stroke-linejoin:round;stroke-miterlimit:4;stroke-dasharray:none;stroke-opacity:1" id="path914" />
      <path inkscape:connector-curvature="0" d="m 156.48539,736.06176 -4.97041,-0.46576 0.44607,-4.7604 q -2.5455,5.05802 -7.4459,4.59882 -4.34036,-0.40672 -6.31163,-4.24016 -1.97126,-3.83345 -1.46833,-9.20056 0.46795,-4.99375 3.21916,-8.47883 2.75121,-3.48509 7.18491,-3.06962 4.55038,0.42639 5.93463,4.74626 l 1.07583,-11.48096 5.32045,0.49856 z m -4.0172,-14.40638 q 0.26896,-2.87024 -0.95913,-4.58605 -1.20257,-1.73696 -3.37275,-1.94032 -2.35686,-0.22085 -3.8794,1.70801 -1.52253,1.92887 -1.90519,6.01254 -0.73909,7.88732 4.20799,8.35089 1.96016,0.18368 3.61105,-1.35651 1.67642,-1.56135 1.92351,-4.19823 z" style="font-style:normal;font-variant:normal;font-weight:normal;font-stretch:normal;font-size:48px;line-height:125%;font-family:'Franklin Gothic Medium';text-align:start;writing-mode:lr-tb;text-anchor:start;fill:#ffffff;fill-opacity:1;stroke:#ffffff;stroke-width:1.82500005;stroke-linecap:round;stroke-linejoin:round;stroke-miterlimit:4;stroke-dasharray:none;stroke-opacity:1" id="path916" />
      <path inkscape:connector-curvature="0" d="m 178.42243,730.10014 4.77076,0.99057 q -1.15862,3.13793 -4.01591,5.02966 -2.85729,1.89173 -6.94891,1.60637 -4.90995,-0.34244 -7.67276,-3.84784 -2.76281,-3.5054 -2.36983,-9.14015 0.37342,-5.35418 3.63412,-8.65094 3.26071,-3.29675 8.42785,-2.93638 5.05023,0.35222 7.56782,4.00498 2.51759,3.65276 2.13928,9.07708 l -0.0658,0.60627 -16.20283,-1.13003 q -0.16795,2.40821 0.17518,3.8888 0.36652,1.48221 1.64759,2.6523 1.28107,1.17009 3.31519,1.31196 3.95134,0.27558 5.59823,-3.46265 z m 0.16512,-7.08381 q 0.15436,-2.55012 -1.25287,-4.26938 -1.38386,-1.71763 -3.60502,-1.87254 -2.19779,-0.15328 -3.77677,1.26373 -1.57734,1.39364 -2.02694,4.13462 z" style="font-style:normal;font-variant:normal;font-weight:normal;font-stretch:normal;font-size:48px;line-height:125%;font-family:'Franklin Gothic Medium';text-align:start;writing-mode:lr-tb;text-anchor:start;fill:#ffffff;fill-opacity:1;stroke:#ffffff;stroke-width:1.82500005;stroke-linecap:round;stroke-linejoin:round;stroke-miterlimit:4;stroke-dasharray:none;stroke-opacity:1" id="path918" />
      <path inkscape:connector-curvature="0" d="m 230.48824,716.14564 -7.65965,23.44817 -4.80243,-0.14724 -3.75512,-16.71668 -4.7487,16.45596 -4.94299,-0.15155 -6.56023,-23.88412 5.66921,0.17381 4.1742,16.04952 4.56389,-15.78162 4.84928,0.14867 3.65881,16.03372 5.05584,-15.76654 z" style="font-style:normal;font-variant:normal;font-weight:normal;font-stretch:normal;font-size:48px;line-height:125%;font-family:'Franklin Gothic Medium';text-align:start;writing-mode:lr-tb;text-anchor:start;fill:#ffffff;fill-opacity:1;stroke:#ffffff;stroke-width:1.82500005;stroke-linecap:round;stroke-linejoin:round;stroke-miterlimit:4;stroke-dasharray:none;stroke-opacity:1" id="path920" />
      <path inkscape:connector-curvature="0" d="m 239.05667,713.34845 -5.34353,-0.0494 0.0514,-5.55445 5.34352,0.0494 z m -0.24447,26.43637 -5.34353,-0.0494 0.2189,-23.67087 5.34352,0.0494 z" style="font-style:normal;font-variant:normal;font-weight:normal;font-stretch:normal;font-size:48px;line-height:125%;font-family:'Franklin Gothic Medium';text-align:start;writing-mode:lr-tb;text-anchor:start;fill:#ffffff;fill-opacity:1;stroke:#ffffff;stroke-width:1.82500005;stroke-linecap:round;stroke-linejoin:round;stroke-miterlimit:4;stroke-dasharray:none;stroke-opacity:1" id="path922" />
      <path inkscape:connector-curvature="0" d="m 256.16425,735.60312 0.0151,4.17184 q -2.38875,0.52429 -3.70124,0.52905 -2.15623,0.008 -3.70616,-0.83033 -1.55,-0.86157 -2.28191,-2.33549 -0.70856,-1.49744 -0.71977,-4.59117 l -0.0444,-12.25774 -2.9531,0.0107 -0.015,-4.14841 3.25779,-0.0118 0.46985,-6.16581 4.38134,-0.41432 0.0238,6.56246 4.75778,-0.0172 0.015,4.14841 -4.75778,0.0172 0.0419,11.55461 q 0.008,2.22655 0.80792,3.04397 0.82319,0.7939 3.07318,0.78574 0.6328,-0.002 1.33576,-0.0517 z" style="font-style:normal;font-variant:normal;font-weight:normal;font-stretch:normal;font-size:48px;line-height:125%;font-family:'Franklin Gothic Medium';text-align:start;writing-mode:lr-tb;text-anchor:start;fill:#ffffff;fill-opacity:1;stroke:#ffffff;stroke-width:1.82500005;stroke-linecap:round;stroke-linejoin:round;stroke-miterlimit:4;stroke-dasharray:none;stroke-opacity:1" id="path924" />
      <path inkscape:connector-curvature="0" d="m 280.26826,739.29229 -5.34231,0.1241 -0.35978,-15.488 q -0.0582,-2.50714 -1.15948,-3.48964 -1.07835,-1.00648 -2.50765,-0.97328 -2.27283,0.0528 -3.77737,1.89292 -1.50455,1.84013 -1.40821,5.98745 l 0.28522,12.27793 -5.34231,0.1241 -0.74297,-31.98355 5.3423,-0.12411 0.28957,12.46539 q 1.873,-5.15426 6.86384,-5.2702 7.28709,-0.16927 7.48141,8.19566 z" style="font-style:normal;font-variant:normal;font-weight:normal;font-stretch:normal;font-size:48px;line-height:125%;font-family:'Franklin Gothic Medium';text-align:start;writing-mode:lr-tb;text-anchor:start;fill:#ffffff;fill-opacity:1;stroke:#ffffff;stroke-width:1.82500005;stroke-linecap:round;stroke-linejoin:round;stroke-miterlimit:4;stroke-dasharray:none;stroke-opacity:1" id="path926" />
      <path inkscape:connector-curvature="0" d="m 295.53441,733.25155 4.95292,-1.24437 q 1.31038,2.8129 5.21812,2.59049 4.96073,-0.28233 4.79426,-3.20728 -0.0533,-0.93598 -0.86009,-1.50043 -0.80681,-0.56444 -1.87178,-0.71511 l -4.35214,-0.57395 q -7.23886,-0.97306 -7.55848,-6.58897 -0.17845,-3.13555 1.96746,-5.4409 2.14458,-2.32874 6.63731,-2.58444 7.48788,-0.42616 9.46221,4.9782 l -4.69552,1.22973 q -0.90061,-2.62494 -4.41055,-2.42518 -4.25873,0.24238 -4.10692,2.90994 0.10521,1.84857 3.58491,2.35479 l 5.13765,0.764 q 5.98936,0.87985 6.30631,6.44896 0.2224,3.90774 -2.70901,6.02303 -2.93275,2.0919 -7.12129,2.33028 -3.62694,0.20642 -6.49407,-1.08588 -2.86845,-1.3157 -3.8813,-4.26291 z" style="font-style:normal;font-variant:normal;font-weight:normal;font-stretch:normal;font-size:48px;line-height:125%;font-family:'Franklin Gothic Medium';text-align:start;writing-mode:lr-tb;text-anchor:start;fill:#ffffff;fill-opacity:1;stroke:#ffffff;stroke-width:1.82500005;stroke-linecap:round;stroke-linejoin:round;stroke-miterlimit:4;stroke-dasharray:none;stroke-opacity:1" id="path928" />
      <path inkscape:connector-curvature="0" d="m 334.93595,728.51936 4.86472,0.27555 q -0.68277,3.27457 -3.22954,5.56732 -2.54677,2.29275 -6.6357,2.61444 -4.90671,0.38603 -8.15667,-2.67318 -3.24995,-3.05921 -3.69296,-8.69025 -0.42096,-5.35065 2.31743,-9.09258 2.73838,-3.74193 7.90211,-4.14818 5.04691,-0.39706 8.07607,2.84409 3.02917,3.24115 3.45564,8.6619 l 0.0244,0.60934 -16.19215,1.2739 q 0.18934,2.40663 0.74725,3.82035 0.58128,1.41188 2.02102,2.38007 1.43975,0.96818 3.47253,0.80825 3.94874,-0.31066 5.02582,-4.25102 z m -0.88227,-7.03059 q -0.22373,-2.54498 -1.86931,-4.0377 -1.62222,-1.49456 -3.84193,-1.31992 -2.19633,0.17279 -3.54886,1.80735 -1.35437,1.61118 -1.39447,4.38851 z" style="font-style:normal;font-variant:normal;font-weight:normal;font-stretch:normal;font-size:48px;line-height:125%;font-family:'Franklin Gothic Medium';text-align:start;writing-mode:lr-tb;text-anchor:start;fill:#ffffff;fill-opacity:1;stroke:#ffffff;stroke-width:1.82500005;stroke-linecap:round;stroke-linejoin:round;stroke-miterlimit:4;stroke-dasharray:none;stroke-opacity:1" id="path930" />
      <path inkscape:connector-curvature="0" d="m 358.3887,725.14294 4.6176,0.007 q -0.44129,4.51982 -2.77013,6.89718 -2.32884,2.37736 -5.92016,2.73794 -4.87393,0.48936 -7.86502,-2.79074 -2.9701,-3.30575 -3.48756,-8.45953 -0.53385,-5.31702 1.98567,-9.07973 2.51951,-3.76271 7.30017,-4.24271 7.69568,-0.77267 9.97967,7.19526 l -4.50755,1.08857 q -1.04651,-4.32333 -4.75443,-3.95104 -2.70515,0.27161 -3.7023,2.77437 -0.97617,2.4771 -0.639,5.83522 0.35824,3.56799 1.81187,5.37714 1.47696,1.8068 3.76234,1.57734 3.49804,-0.35122 4.18883,-4.96676 z" style="font-style:normal;font-variant:normal;font-weight:normal;font-stretch:normal;font-size:48px;line-height:125%;font-family:'Franklin Gothic Medium';text-align:start;writing-mode:lr-tb;text-anchor:start;fill:#ffffff;fill-opacity:1;stroke:#ffffff;stroke-width:1.82500005;stroke-linecap:round;stroke-linejoin:round;stroke-miterlimit:4;stroke-dasharray:none;stroke-opacity:1" id="path932" />
      <path inkscape:connector-curvature="0" d="m 373.25449,732.21448 -5.30715,0.62435 -2.76578,-23.50975 4.79506,-0.5641 0.65995,5.60975 q 0.63808,-3.40255 2.25241,-5.12641 1.61433,-1.72385 3.49977,-1.94566 0.25604,-0.0301 0.70104,-0.0589 l 0.67091,5.70286 q -4.05019,0.47648 -5.07302,3.21631 -0.99955,2.7371 -0.71476,5.1579 z" style="font-style:normal;font-variant:normal;font-weight:normal;font-stretch:normal;font-size:48px;line-height:125%;font-family:'Franklin Gothic Medium';text-align:start;writing-mode:lr-tb;text-anchor:start;fill:#ffffff;fill-opacity:1;stroke:#ffffff;stroke-width:1.82500005;stroke-linecap:round;stroke-linejoin:round;stroke-miterlimit:4;stroke-dasharray:none;stroke-opacity:1" id="path934" />
      <path inkscape:connector-curvature="0" d="m 397.66928,721.45702 4.87252,10e-4 q -0.49721,3.30784 -2.91076,5.74042 -2.41356,2.43259 -6.47787,2.98413 -4.87717,0.66185 -8.29431,-2.20941 -3.41714,-2.87126 -4.17669,-8.46839 -0.72174,-5.31844 1.80149,-9.2087 2.52323,-3.89026 7.65587,-4.58678 5.01652,-0.68076 8.22347,2.38459 3.20696,3.06534 3.93814,8.45346 l 0.0587,0.60699 -16.09466,2.18411 q 0.32462,2.39214 0.96129,3.77218 0.6599,1.37689 2.1519,2.26243 1.49201,0.88554 3.51255,0.61134 3.92496,-0.53263 4.77834,-4.52742 z m -1.27695,-6.96971 q -0.36676,-2.52834 -2.09382,-3.92598 -1.70384,-1.40079 -3.91018,-1.10138 -2.18312,0.29626 -3.44141,2.00441 -1.26145,1.68493 -1.14502,4.46011 z" style="font-style:normal;font-variant:normal;font-weight:normal;font-stretch:normal;font-size:48px;line-height:125%;font-family:'Franklin Gothic Medium';text-align:start;writing-mode:lr-tb;text-anchor:start;fill:#ffffff;fill-opacity:1;stroke:#ffffff;stroke-width:1.82500005;stroke-linecap:round;stroke-linejoin:round;stroke-miterlimit:4;stroke-dasharray:none;stroke-opacity:1" id="path936" />
      <path inkscape:connector-curvature="0" d="m 418.68169,721.72388 0.63199,4.12372 q -2.28493,0.87183 -3.58228,1.07066 -2.13136,0.32665 -3.7882,-0.27303 -1.6604,-0.62285 -2.60226,-1.9723 -0.92224,-1.37617 -1.39091,-4.43422 l -1.85692,-12.11634 -2.91904,0.44736 -0.62844,-4.10056 3.22021,-0.49352 -0.44728,-6.16749 4.27187,-1.05778 0.99415,6.48676 4.7029,-0.72075 0.62844,4.10056 -4.7029,0.72075 1.75041,11.42134 q 0.33729,2.20086 1.24924,2.89099 0.93156,0.66341 3.1556,0.32256 0.62551,-0.0959 1.31342,-0.24871 z" style="font-style:normal;font-variant:normal;font-weight:normal;font-stretch:normal;font-size:48px;line-height:125%;font-family:'Franklin Gothic Medium';text-align:start;writing-mode:lr-tb;text-anchor:start;fill:#ffffff;fill-opacity:1;stroke:#ffffff;stroke-width:1.82500005;stroke-linecap:round;stroke-linejoin:round;stroke-miterlimit:4;stroke-dasharray:none;stroke-opacity:1" id="path938" />
    </g>
    <path inkscape:connector-curvature="0" id="path1306" d="m -196.50626,70.939689 c -16.43762,-0.05947 -29.80329,6.807341 -31.60107,12.390652 -1.4925,4.635218 -3.55015,17.785119 -4.37564,22.094729 -0.1529,-0.0582 -0.31941,-0.0973 -0.49248,-0.0973 -0.79385,-1e-5 -1.43486,0.66835 -1.43486,1.48958 0,0.82122 0.64101,1.4835 1.43486,1.4835 0.54906,0 1.01018,-0.32814 1.25247,-0.79647 0.21423,0.5253 0.7234,0.89983 1.32542,0.89983 0.79386,-1e-5 1.44094,-0.64709 1.44094,-1.44094 0,-0.79386 -0.64708,-1.43487 -1.44094,-1.43487 -0.002,0 -0.004,-1e-5 -0.006,0 0.12978,-0.7023 2.09313,-11.789271 2.98173,-13.68268 0.5837,-1.243746 24.75258,-2.379587 25.12386,-1.237739 0.5363,1.649345 -0.87003,12.136829 -1.18976,16.331759 -0.0756,-0.0102 -0.14615,-0.033 -0.22496,-0.0304 -0.79342,0.0262 -1.41326,0.71744 -1.38622,1.53823 0.027,0.82078 0.69008,1.461 1.4835,1.43486 0.54876,-0.0181 0.99533,-0.36297 1.22207,-0.83903 0.23141,0.51796 0.75412,0.87709 1.35582,0.85727 0.79342,-0.0261 1.41844,-0.69616 1.3923,-1.48958 -0.0261,-0.79343 -0.69007,-1.41237 -1.4835,-1.38623 -0.068,0.002 -0.12995,0.0249 -0.19456,0.0365 0.22658,-3.21963 1.81697,-16.099799 2.65847,-17.053368 0.57502,-0.651607 5.3862,-0.945636 5.53801,0.09654 0.13322,0.91461 2.22861,14.647518 1.97382,16.084758 -1.54416,-0.0505 -2.15959,2.30603 -1.34023,2.25074 l 4.74726,-0.32033 c 0.79205,-0.0534 0.24468,-1.78743 -1.65601,-2.00337 0.74784,-3.24567 -0.76219,-17.601814 -0.49904,-17.988939 0.30362,-0.44665 1.82417,-2.98007 1.97597,-4.766661 0.021,-0.246835 0.0185,-0.691324 -0.0122,-1.228145 4.74825,0.911084 7.93678,1.522291 10.03487,0.369718 2.96927,-1.631156 3.52861,-2.838347 6.55116,-4.826303 3.76402,-2.475635 6.58855,-0.991783 8.39216,-1.361462 1.80362,-0.369669 0.96909,-2.7807 2.05782,-4.622256 1.18209,-1.999486 -4.1794,-3.407731 -5.40951,-1.831575 -1.53083,1.961481 -1.25642,3.329526 -2.63562,3.808527 -1.80854,0.628108 -5.73589,3.026919 -7.02082,3.933663 -2.17671,1.536046 -4.12961,2.820667 -8.02419,1.337727 -2.8802,-1.436706 -2.25975,-4.652218 -6.03737,-6.250163 -1.83325,-0.942363 -3.60734,-1.685909 -5.03418,-1.933416 -0.0743,-0.01683 -0.14913,-0.02775 -0.22495,-0.04256 -0.0884,-0.01226 -0.17624,-0.02258 -0.26144,-0.0304 -0.33359,-0.05398 -0.59433,0.269011 -0.95693,0.255592 z" style="fill:#9af286;fill-opacity:1;fill-rule:evenodd;stroke:#3e7e42;stroke-width:0.5803653;stroke-linecap:butt;stroke-linejoin:miter;stroke-miterlimit:4;stroke-dasharray:none;stroke-opacity:1" />
    <path inkscape:connector-curvature="0" id="rect2844" d="m -158.20846,54.979999 c 0.43593,0.06491 0.73791,0.427583 0.5172,1.212878 l -6.1598,21.471216 c -0.2207,0.785295 -0.55626,0.979114 -0.99219,0.914208 -0.43592,-0.0649 -0.80226,-0.363226 -0.58155,-1.148521 l 6.1598,-21.471217 c 0.2207,-0.785295 0.62061,-1.043469 1.05654,-0.978564 z" style="fill:#e0773e;fill-opacity:1;stroke:#000000;stroke-width:0.52971601;stroke-miterlimit:4;stroke-opacity:1" />
    <path inkscape:connector-curvature="0" id="path9395" d="m -201.24878,77.841928 c -0.99651,3.44944 1.72472,4.5226 1.72472,4.5226 0,0 1.07316,0.689888 1.91636,0.919851 0.84319,0.229963 4.24473,1.207304 4.5226,-2.567917 -1.29354,-0.364107 -8.16368,-2.874534 -8.16368,-2.874534 z" style="fill:#ffffff;fill-opacity:1;fill-rule:evenodd;stroke:none;stroke-width:0.19455761px;stroke-linecap:butt;stroke-linejoin:miter;stroke-opacity:1" />
    <path inkscape:connector-curvature="0" id="path7193" d="m -185.3635,107.7602 -9.12479,0.69427" style="color:#000000;display:inline;overflow:visible;visibility:visible;opacity:1;fill:#a3a3a3;fill-opacity:1;fill-rule:evenodd;stroke:#000000;stroke-width:0.81714189;stroke-linecap:butt;stroke-linejoin:miter;stroke-miterlimit:4;stroke-dasharray:none;stroke-dashoffset:0;stroke-opacity:1;marker:none;marker-start:none;marker-mid:none;marker-end:none" />
    <path inkscape:connector-curvature="0" id="path10849" d="m -194.27324,80.333191 -0.72822,3.219477" style="fill:none;fill-opacity:0.75;fill-rule:evenodd;stroke:#000000;stroke-width:0.19455761px;stroke-linecap:butt;stroke-linejoin:miter;stroke-opacity:1" />
    <path inkscape:connector-curvature="0" id="path10851" d="m -195.46138,80.026574 -0.80487,3.526094" style="fill:none;fill-opacity:0.75;fill-rule:evenodd;stroke:#000000;stroke-width:0.19455761px;stroke-linecap:butt;stroke-linejoin:miter;stroke-opacity:1" />
    <path inkscape:connector-curvature="0" id="path10853" d="m -196.57287,79.566648 -0.80487,3.641077" style="fill:none;fill-opacity:0.75;fill-rule:evenodd;stroke:#000000;stroke-width:0.19455761px;stroke-linecap:butt;stroke-linejoin:miter;stroke-opacity:1" />
    <path inkscape:connector-curvature="0" id="path10855" d="m -197.64603,79.183377 -0.80487,3.641076 z" style="fill:none;fill-opacity:0.75;fill-rule:evenodd;stroke:#000000;stroke-width:0.19455761px;stroke-linecap:butt;stroke-linejoin:miter;stroke-opacity:1" />
    <path inkscape:connector-curvature="0" id="path10857" d="m -198.75752,78.800106 -0.76654,3.564422" style="fill:none;fill-opacity:0.75;fill-rule:evenodd;stroke:#000000;stroke-width:0.19455761px;stroke-linecap:butt;stroke-linejoin:miter;stroke-opacity:1" />
    <path inkscape:connector-curvature="0" id="path10859" d="m -199.71569,78.455162 -0.72822,3.104497" style="fill:none;fill-opacity:0.75;fill-rule:evenodd;stroke:#000000;stroke-width:0.19455761px;stroke-linecap:butt;stroke-linejoin:miter;stroke-opacity:1" />
    <path inkscape:connector-curvature="0" id="path10861" d="m -200.59722,78.033563 -0.57491,2.376282" style="fill:none;fill-opacity:0.75;fill-rule:evenodd;stroke:#000000;stroke-width:0.19455761px;stroke-linecap:butt;stroke-linejoin:miter;stroke-opacity:1" />
    <path inkscape:connector-curvature="0" id="path10863" d="m -193.39172,82.172893 c -2.45294,-0.07665 -6.43896,-1.418103 -8.08702,-2.759553" style="fill:none;fill-opacity:0.75;fill-rule:evenodd;stroke:#000000;stroke-width:0.19455761px;stroke-linecap:butt;stroke-linejoin:miter;stroke-opacity:1" />
    <path inkscape:connector-curvature="0" id="path1334" d="m -187.90289,82.141511 c -5.3397,-1.351691 -13.27478,-4.342853 -13.27478,-4.342853 0,0 -1.91768,4.324088 4.43914,5.692658 3.55054,0.764398 3.65697,-2.702553 3.65697,-2.702553" style="color:#000000;display:inline;overflow:visible;visibility:visible;opacity:1;fill:none;fill-opacity:1;fill-rule:evenodd;stroke:#3e7e42;stroke-width:0.5803653;stroke-linecap:butt;stroke-linejoin:miter;stroke-miterlimit:4;stroke-dasharray:none;stroke-dashoffset:0;stroke-opacity:1;marker:none;marker-start:none;marker-mid:none;marker-end:none" />
    <path inkscape:connector-curvature="0" id="path1319" d="m -161.96582,73.774376 c 1.84685,0.23867 2.3944,-1.838688 1.75723,-2.82435 -0.58061,-0.898161 -2.57532,-1.875268 -3.08281,-0.636981 -0.38051,0.928444 0.62507,1.455796 1.46429,1.369263" style="color:#000000;display:inline;overflow:visible;visibility:visible;opacity:1;fill:#9af286;fill-opacity:1;fill-rule:evenodd;stroke:#3e7e42;stroke-width:0.5803653;stroke-linecap:round;stroke-linejoin:miter;stroke-miterlimit:4;stroke-dasharray:none;stroke-dashoffset:0;stroke-opacity:1;marker:none;marker-start:none;marker-mid:none;marker-end:none" />
    <path inkscape:connector-curvature="0" id="path1317" d="m -162.67042,74.869002 c -0.75349,-0.394485 -1.80329,-0.311199 -1.3318,-1.60884 0.34851,-0.959178 1.49632,-0.223144 3.03433,0.828973 1.53802,1.052115 -0.0571,2.354178 -1.92504,2.19283" style="color:#000000;display:inline;overflow:visible;visibility:visible;opacity:1;fill:#9af286;fill-opacity:1;fill-rule:evenodd;stroke:#3e7e42;stroke-width:0.5803653;stroke-linecap:round;stroke-linejoin:miter;stroke-miterlimit:4;stroke-dasharray:none;stroke-dashoffset:0;stroke-opacity:1;marker:none;marker-start:none;marker-mid:none;marker-end:none" />
    <path inkscape:connector-curvature="0" id="path1315" d="m -167.50599,71.942042 c 0.63108,-1.121753 0.81629,-2.254117 1.50022,-2.488981 0.66034,-0.226759 2.24086,-1.382139 2.80898,-1.076829 0.56811,0.305311 1.02163,1.395948 -0.80413,2.273748 -0.87065,0.418598 -0.90746,1.522642 -1.61491,1.960424" style="color:#000000;display:inline;overflow:visible;visibility:visible;opacity:1;fill:#9af286;fill-opacity:1;fill-rule:evenodd;stroke:#3e7e42;stroke-width:0.5803653;stroke-linecap:round;stroke-linejoin:miter;stroke-miterlimit:4;stroke-dasharray:none;stroke-dashoffset:0;stroke-opacity:1;marker:none;marker-start:none;marker-mid:none;marker-end:none" />
    <path inkscape:connector-curvature="0" id="path15231" d="m -209.31654,77.312486 c 0,0 3.83518,-0.624684 3.51163,-2.81399 -0.27194,-1.840153 -3.0341,-1.429868 -4.42279,-1.080189 0.0881,1.115881 0.23691,1.729364 -1.03885,2.265969 1.28304,-0.02638 1.577,0.355315 1.95001,1.62821 z" style="fill:#62e06e;fill-opacity:1;fill-rule:evenodd;stroke:none;stroke-width:0.04040507px;stroke-linecap:butt;stroke-linejoin:miter;stroke-opacity:1" />
    <path inkscape:connector-curvature="0" style="fill:#62e06e;fill-opacity:1;fill-rule:evenodd;stroke:none;stroke-width:0.04040507px;stroke-linecap:butt;stroke-linejoin:miter;stroke-opacity:1" d="m -208.89467,81.672886 c 0,0 3.8853,-0.05797 3.8849,-2.271056 -3.9e-4,-1.86014 -2.79279,-1.857583 -4.21766,-1.714432 -0.0758,1.116779 -0.0181,1.745423 -1.35859,2.089989 1.27314,0.161257 1.50822,0.581781 1.69135,1.895499 z" id="path15959" />
    <path inkscape:connector-curvature="0" id="path15961" d="m -208.86347,86.200836 c 0,0 3.87808,0.243563 4.04934,-1.962884 0.14395,-1.854562 -2.64029,-2.06861 -4.07197,-2.036409 -0.16223,1.107531 -0.15348,1.738758 -1.51661,1.978315 1.2568,0.259522 1.45855,0.697014 1.53924,2.020978 z" style="fill:#62e06e;fill-opacity:1;fill-rule:evenodd;stroke:none;stroke-width:0.04040507px;stroke-linecap:butt;stroke-linejoin:miter;stroke-opacity:1" />
    <path inkscape:connector-curvature="0" id="path15963" d="m -208.99205,86.678763 c -0.23439,1.094531 -0.26568,1.728901 -1.64157,1.878697 1.05023,0.289702 1.32235,0.68902 1.38014,1.6051 1.25876,-0.01881 2.40735,-0.01747 3.40476,0.0061 0.40564,-0.261448 0.70547,-0.644042 0.78431,-1.191665 0.26506,-1.841153 -2.49691,-2.236607 -3.92764,-2.298212 z" style="fill:#62e06e;fill-opacity:1;fill-rule:evenodd;stroke:none;stroke-width:0.04040507px;stroke-linecap:butt;stroke-linejoin:miter;stroke-opacity:1" />
    <path inkscape:connector-curvature="0" id="path15965" d="m -210.99842,72.731415 c -1.65506,0.427848 -3.23068,0.918725 -4.69978,1.459182 0.874,0.184133 1.10751,0.605413 1.26462,1.678059 0,-10e-7 3.84264,-0.110932 3.84251,-2.194852 -2e-5,-0.40668 -0.16127,-0.707992 -0.40735,-0.942389 z" style="fill:#62e06e;fill-opacity:1;fill-rule:evenodd;stroke:none;stroke-width:0.04040507px;stroke-linecap:butt;stroke-linejoin:miter;stroke-opacity:1" />
    <path inkscape:connector-curvature="0" style="fill:#62e06e;fill-opacity:1;fill-rule:evenodd;stroke:none;stroke-width:0.04040507px;stroke-linecap:butt;stroke-linejoin:miter;stroke-opacity:1" d="m -213.61972,79.881629 c 0,0 3.83975,-0.09848 3.84523,-2.182388 0.005,-1.751575 -2.75502,-1.717626 -4.16352,-1.566733 -0.0779,1.052453 -0.0226,1.643757 -1.34815,1.983357 1.25774,0.137461 1.48894,0.53079 1.66644,1.765764 z" id="path15967" />
    <path inkscape:connector-curvature="0" id="path15971" d="m -213.25986,84.200014 c 0,0 3.83976,-0.09848 3.84524,-2.182388 0.005,-1.751575 -2.75502,-1.717626 -4.16352,-1.566733 -0.0779,1.052453 -0.0226,1.643756 -1.34816,1.983357 1.25774,0.137461 1.48894,0.53079 1.66644,1.765764 z" style="fill:#62e06e;fill-opacity:1;fill-rule:evenodd;stroke:none;stroke-width:0.04040507px;stroke-linecap:butt;stroke-linejoin:miter;stroke-opacity:1" />
    <path inkscape:connector-curvature="0" style="fill:#62e06e;fill-opacity:1;fill-rule:evenodd;stroke:none;stroke-width:0.04040507px;stroke-linecap:butt;stroke-linejoin:miter;stroke-opacity:1" d="m -213.23314,88.302356 c 0,0 3.83484,0.217743 4.01175,-1.858655 0.14869,-1.745258 -2.60438,-1.938452 -4.02052,-1.903943 -0.16422,1.042478 -0.15771,1.636331 -1.50675,1.865726 1.24217,0.240465 1.44022,0.651482 1.51552,1.896872 z" id="path15973" />
    <path inkscape:connector-curvature="0" id="path15975" d="m -213.53983,88.679058 c -0.1254,0.796 -0.16636,1.325156 -0.77215,1.6355 1.64455,-0.07509 3.23028,-0.125643 4.73626,-0.151998 -0.30835,-1.344115 -2.67529,-1.514907 -3.96411,-1.483502 z" style="fill:#62e06e;fill-opacity:1;fill-rule:evenodd;stroke:none;stroke-width:0.04040507px;stroke-linecap:butt;stroke-linejoin:miter;stroke-opacity:1" />
    <path inkscape:connector-curvature="0" style="fill:#62e06e;fill-opacity:1;fill-rule:evenodd;stroke:none;stroke-width:0.04040507px;stroke-linecap:butt;stroke-linejoin:miter;stroke-opacity:1" d="m -218.01161,78.60936 c 0,0 3.80644,-0.514198 3.58595,-2.586421 -0.18532,-1.74175 -2.78983,-1.119158 -4.17367,-0.816446 0.0367,1.054699 0.0206,1.346868 -1.26034,1.828184 1.26523,1.95e-4 1.53771,0.366233 1.84806,1.574683 z" id="path15977" />
    <path inkscape:connector-curvature="0" id="path15979" d="m -217.59177,82.627856 c 0,0 3.80644,-0.514198 3.58596,-2.586422 -0.18533,-1.741749 -2.92501,-1.408805 -4.30884,-1.106093 0.0367,1.054699 0.15578,1.636516 -1.12518,2.117832 1.26523,1.94e-4 1.53771,0.366233 1.84806,1.574683 z" style="fill:#62e06e;fill-opacity:1;fill-rule:evenodd;stroke:none;stroke-width:0.04040507px;stroke-linecap:butt;stroke-linejoin:miter;stroke-opacity:1" />
    <path inkscape:connector-curvature="0" style="fill:#62e06e;fill-opacity:1;fill-rule:evenodd;stroke:none;stroke-width:0.04040507px;stroke-linecap:butt;stroke-linejoin:miter;stroke-opacity:1" d="m -217.67045,86.449845 c 0,0 3.84102,0.0064 3.90338,-2.076623 0.0524,-1.750796 -2.70712,-1.792182 -4.11921,-1.67979 -0.1066,1.049937 -0.0674,1.642531 -1.40179,1.945821 1.25352,0.17174 1.4739,0.571235 1.61762,1.810592 z" id="path15981" />
    <path inkscape:connector-curvature="0" id="path15983" d="m -217.84305,90.395716 c 0,0 3.83359,0.238685 4.02183,-1.836715 0.15822,-1.744421 -2.59375,-1.952646 -4.01005,-1.925875 -0.16992,1.041566 -0.16665,1.635445 -1.51692,1.857466 1.24084,0.24725 1.43664,0.659344 1.50514,1.905124 z" style="fill:#62e06e;fill-opacity:1;fill-rule:evenodd;stroke:none;stroke-width:0.04040507px;stroke-linecap:butt;stroke-linejoin:miter;stroke-opacity:1" />
    <path inkscape:connector-curvature="0" style="fill:#62e06e;fill-opacity:1;fill-rule:evenodd;stroke:none;stroke-width:0.04040507px;stroke-linecap:butt;stroke-linejoin:miter;stroke-opacity:1" d="m -221.6981,81.361012 c 0,0 3.54585,-0.790745 3.16682,-2.73864 -0.31859,-1.637249 -2.87378,-1.103346 -4.15331,-0.706063 0.12169,0.997433 0.28205,1.539787 -0.88575,2.098282 1.19275,-0.10045 1.47985,0.224948 1.87224,1.346421 z" id="path15987" />
    <path inkscape:connector-curvature="0" id="path15989" d="m -221.64311,85.065875 c 0,0 3.60607,-0.441068 3.41887,-2.416649 -0.15735,-1.660518 -2.75244,-1.378425 -4.06462,-1.107857 0.0238,1.004545 0.13049,1.559958 -1.08622,2.001869 1.19686,0.01638 1.45085,0.368235 1.73197,1.522637 z" style="fill:#62e06e;fill-opacity:1;fill-rule:evenodd;stroke:none;stroke-width:0.04040507px;stroke-linecap:butt;stroke-linejoin:miter;stroke-opacity:1" />
    <path inkscape:connector-curvature="0" style="fill:#62e06e;fill-opacity:1;fill-rule:evenodd;stroke:none;stroke-width:0.04040507px;stroke-linecap:butt;stroke-linejoin:miter;stroke-opacity:1" d="m -221.77473,88.658953 c 0,0 3.62843,-0.181291 3.5834,-2.16521 -0.0378,-1.667528 -2.64648,-1.57229 -3.97469,-1.396535 -0.0483,1.003667 0.0183,1.565302 -1.227,1.918805 1.1926,0.102186 1.4207,0.471349 1.61829,1.64294 z" id="path15991" />
    <path inkscape:connector-curvature="0" id="path15995" d="m -221.93621,88.812817 c -0.14424,0.994421 -0.13104,1.561009 -1.40446,1.793578 0.37289,0.0684 0.62382,0.162798 0.82687,0.285756 1.32801,-0.135982 2.80474,-0.252862 4.39579,-0.358715 0.062,-1.612612 -2.49395,-1.767786 -3.8182,-1.720619 z" style="fill:#62e06e;fill-opacity:1;fill-rule:evenodd;stroke:none;stroke-width:0.04040507px;stroke-linecap:butt;stroke-linejoin:miter;stroke-opacity:1" />
    <path inkscape:connector-curvature="0" style="fill:#62e06e;fill-opacity:1;fill-rule:evenodd;stroke:none;stroke-width:0.04040507px;stroke-linecap:butt;stroke-linejoin:miter;stroke-opacity:1" d="m -225.68239,83.714892 c 0,0 3.50505,-0.527737 3.25665,-2.370645 -0.20879,-1.54901 -2.73235,-1.202275 -4.00412,-0.907232 0.0566,0.939361 0.17924,1.455754 -0.99365,1.908106 1.16875,-0.02282 1.42835,0.29837 1.74112,1.369771 z" id="path15997" />
    <path inkscape:connector-curvature="0" id="path15999" d="m -225.79024,87.171076 c 0,0 3.53973,-0.185079 3.47136,-2.043394 -0.0575,-1.561961 -2.60277,-1.461776 -3.89717,-1.291551 -0.0348,0.940421 0.0371,1.466275 -1.17415,1.802663 1.16545,0.09071 1.39265,0.435584 1.59996,1.532282 z" style="fill:#62e06e;fill-opacity:1;fill-rule:evenodd;stroke:none;stroke-width:0.04040507px;stroke-linecap:butt;stroke-linejoin:miter;stroke-opacity:1" />
    <path inkscape:connector-curvature="0" style="fill:#62e06e;fill-opacity:1;fill-rule:evenodd;stroke:none;stroke-width:0.04040507px;stroke-linecap:butt;stroke-linejoin:miter;stroke-opacity:1" d="m -225.73026,90.76973 c 0,0 3.53973,-0.185079 3.47136,-2.043394 -0.0575,-1.561961 -2.60278,-1.461776 -3.89718,-1.291551 -0.0348,0.940421 0.0371,1.466275 -1.17414,1.802663 1.16545,0.09072 1.39265,0.435584 1.59996,1.532282 z" id="path16003" />
    <path inkscape:connector-curvature="0" style="fill:#62e06e;fill-opacity:1;fill-rule:evenodd;stroke:none;stroke-width:0.04040507px;stroke-linecap:butt;stroke-linejoin:miter;stroke-opacity:1" d="m -210.99842,72.731415 c -1.65506,0.427848 -3.23068,0.918725 -4.69978,1.459182 0.874,0.184133 1.10751,0.605413 1.26462,1.678059 0,-10e-7 3.84264,-0.110932 3.84251,-2.194852 -2e-5,-0.40668 -0.16127,-0.707992 -0.40735,-0.942389 z" id="path16013" />
    <path inkscape:connector-curvature="0" style="fill:#62e06e;fill-opacity:1;fill-rule:evenodd;stroke:none;stroke-width:0.04040507px;stroke-linecap:butt;stroke-linejoin:miter;stroke-opacity:1" d="m -221.93621,88.812817 c -0.14424,0.994421 -0.13104,1.561009 -1.40446,1.793578 0.37289,0.0684 0.62382,0.162798 0.82687,0.285756 1.32801,-0.135982 2.80474,-0.252862 4.39579,-0.358715 0.062,-1.612612 -2.49395,-1.767786 -3.8182,-1.720619 z" id="path16018" />
    <path inkscape:connector-curvature="0" style="fill:#62e06e;fill-opacity:1;fill-rule:evenodd;stroke:none;stroke-width:0.04040507px;stroke-linecap:butt;stroke-linejoin:miter;stroke-opacity:1" d="m -213.53983,88.679058 c -0.1254,0.796 -0.16636,1.325156 -0.77215,1.6355 1.64455,-0.07509 3.23028,-0.125643 4.73626,-0.151998 -0.30835,-1.344115 -2.67529,-1.514907 -3.96411,-1.483502 z" id="path16023" />
    <path inkscape:connector-curvature="0" style="fill:none;fill-opacity:1;fill-rule:evenodd;stroke:#3e7e42;stroke-width:0.5803653;stroke-linecap:butt;stroke-linejoin:miter;stroke-miterlimit:4;stroke-dasharray:none;stroke-opacity:1" d="m -195.06294,70.757056 c -0.0743,-0.01683 -0.14913,-0.02775 -0.22495,-0.04256 -0.0884,-0.01226 -0.17624,-0.02258 -0.26144,-0.0304 -0.33359,-0.05398 -0.59433,0.269011 -0.95693,0.255592 -16.43762,-0.05947 -29.80329,6.807341 -31.60107,12.390652 -1.4925,4.635218 -3.55015,17.78512 -4.37564,22.09473 -0.1529,-0.0582 -0.31941,-0.0973 -0.49248,-0.0973 -0.79385,-1e-5 -1.43486,0.66835 -1.43486,1.48958 0,0.82122 0.64101,1.4835 1.43486,1.4835 0.54906,0 1.01018,-0.32814 1.25247,-0.79647 0.21423,0.5253 0.7234,0.89983 1.32542,0.89983 0.79386,-1e-5 1.44094,-0.64709 1.44094,-1.44094 0,-0.79386 -0.64708,-1.43487 -1.44094,-1.43487 -0.002,0 -0.004,-1e-5 -0.006,0 0.12978,-0.7023 2.09313,-11.789272 2.98173,-13.682681 0.5837,-1.243746 24.75258,-2.379587 25.12386,-1.237739" id="path16026" />
    <path inkscape:connector-curvature="0" id="path7197" d="m -197.70279,67.059425 c -1.99301,0.03833 -3.14283,1.724718 -2.22297,3.104495 0.91985,1.379777 4.44594,1.18814 4.90587,-0.229963 0.45992,-1.418103 -1.49476,-3.027842 -2.6829,-2.874532 z" style="fill:#ffffff;fill-opacity:1;fill-rule:evenodd;stroke:#000000;stroke-width:0.27919015;stroke-linecap:butt;stroke-linejoin:miter;stroke-miterlimit:4;stroke-dasharray:none;stroke-opacity:1" />
    <path inkscape:connector-curvature="0" style="fill:#000000;fill-opacity:1;fill-rule:evenodd;stroke:none;stroke-width:0.19455761px;stroke-linecap:butt;stroke-linejoin:miter;stroke-opacity:1" d="m -197.17412,69.355072 c 1.09985,-0.221922 0.85963,-0.909376 0.4276,-1.448607 -0.43202,-0.539234 -1.45775,-0.221411 -1.43637,0.420713 0.0214,0.642124 0.20753,0.942474 1.00877,1.027894 z" id="path7933" />
    <path inkscape:connector-curvature="0" id="path1323" d="m -191.33886,71.228911 c 0.42235,-2.062381 -0.70393,-2.946258 -2.53414,-3.093569 -1.83021,-0.147315 -4.08277,0.736564 -3.23806,2.20969 0.84471,1.473132 4.50512,3.53551 5.7722,0.883879 z" style="fill:#ffffff;fill-opacity:1;fill-rule:evenodd;stroke:#000000;stroke-width:0.27919015;stroke-linecap:butt;stroke-linejoin:miter;stroke-miterlimit:4;stroke-dasharray:none;stroke-opacity:1" />
    <path inkscape:connector-curvature="0" id="path7199" d="m -201.97794,68.389284 c -1.70943,1.025385 -1.86714,3.060358 -0.38249,3.799105 1.48464,0.738745 4.44737,-1.182793 4.14031,-2.641648 -0.30707,-1.458855 -2.80368,-1.881892 -3.75782,-1.157457 z" style="fill:#ffffff;fill-opacity:1;fill-rule:evenodd;stroke:#000000;stroke-width:0.27919015;stroke-linecap:butt;stroke-linejoin:miter;stroke-miterlimit:4;stroke-dasharray:none;stroke-opacity:1" />
    <path inkscape:connector-curvature="0" id="path7935" d="m -201.72716,70.200622 c 0.31094,1.078063 0.9765,0.782545 1.47868,0.307957 0.50217,-0.474586 0.1017,-1.470962 -0.53654,-1.39725 -0.63823,0.07371 -0.92239,0.283752 -0.94214,1.089293 z" style="fill:#000000;fill-opacity:1;fill-rule:evenodd;stroke:none;stroke-width:0.19455761px;stroke-linecap:butt;stroke-linejoin:miter;stroke-opacity:1" />
    <path inkscape:connector-curvature="0" id="path1321" d="m -196.27963,70.655297 c -1.19668,-1.10485 -3.66042,-1.767756 -4.36434,-0.441942 -0.70393,1.325813 -0.28158,3.97745 2.25256,3.830135 2.53414,-0.147313 3.30845,-2.283345 2.11178,-3.388193 z" style="fill:#ffffff;fill-opacity:1;fill-rule:evenodd;stroke:#000000;stroke-width:0.27919015;stroke-linecap:butt;stroke-linejoin:miter;stroke-miterlimit:4;stroke-dasharray:none;stroke-opacity:1" />
    <path inkscape:connector-curvature="0" id="path7195" d="m -195.05822,70.125596 c -1.49475,0.114982 -2.45293,1.839704 -1.34145,2.606245 1.11149,0.766544 3.41112,0.766544 3.60275,-0.689887 0.19164,-1.456431 -1.03483,-1.954684 -2.2613,-1.916358 z" style="fill:#ffffff;fill-opacity:1;fill-rule:evenodd;stroke:#000000;stroke-width:0.27919015;stroke-linecap:butt;stroke-linejoin:miter;stroke-miterlimit:4;stroke-dasharray:none;stroke-opacity:1" />
    <path inkscape:connector-curvature="0" id="path7927" d="m -198.12439,70.547193 c -1.11148,-0.153308 -1.11148,0.574908 -0.88152,1.226468 0.22996,0.651561 1.30312,0.689889 1.49476,0.07666 0.19163,-0.613234 0.11498,-0.958178 -0.61324,-1.303123 z" style="fill:#000000;fill-opacity:1;fill-rule:evenodd;stroke:none;stroke-width:0.19455761px;stroke-linecap:butt;stroke-linejoin:miter;stroke-opacity:1" />
    <path inkscape:connector-curvature="0" style="fill:#000000;fill-opacity:1;fill-rule:evenodd;stroke:none;stroke-width:0.14503951px;stroke-linecap:butt;stroke-linejoin:miter;stroke-opacity:1" d="m -193.99977,70.789664 c -0.86037,-0.110067 -0.86037,0.412762 -0.68236,0.880552 0.17801,0.467793 1.0087,0.495311 1.15704,0.05504 0.14834,-0.440274 0.089,-0.687931 -0.47468,-0.935587 z" id="path7929" />
    <path inkscape:connector-curvature="0" id="path7931" d="m -193.29636,68.862075 c -0.98673,0.534096 -0.55584,1.121144 0.0151,1.510323 0.57092,0.389184 1.45873,-0.214923 1.25035,-0.822675 -0.20837,-0.607749 -0.47428,-0.840469 -1.26543,-0.687648 z" style="fill:#000000;fill-opacity:1;fill-rule:evenodd;stroke:none;stroke-width:0.19455761px;stroke-linecap:butt;stroke-linejoin:miter;stroke-opacity:1" />
    <g aria-label="alien technology " transform="matrix(0.19451813,-0.00391881,0.00391881,0.19451813,-250.34201,-16.458438)" style="font-style:normal;font-variant:normal;font-weight:normal;font-stretch:normal;font-size:48px;line-height:0%;font-family:'Franklin Gothic Medium';text-align:start;writing-mode:lr-tb;text-anchor:start;fill:#ffffff;fill-opacity:1;stroke:#ffffff;stroke-width:1.82500005;stroke-linecap:round;stroke-linejoin:round;stroke-miterlimit:4;stroke-dasharray:none;stroke-opacity:1" id="text3555">
      <path inkscape:connector-curvature="0" d="m 93.292305,728.85333 -5.027508,-0.76871 q -0.345971,-2.23421 -0.08822,-4.85031 -2.905368,4.89049 -8.720596,4.00132 -3.498403,-0.53491 -5.318143,-2.89962 -1.793029,-2.38434 -1.318337,-5.48889 1.232783,-8.06254 15.388576,-5.89809 0.556038,0.085 1.502393,0.25343 l 0.269229,-1.76078 q 0.556169,-3.63742 -4.401834,-4.39551 -4.818993,-0.73683 -6.023873,2.80139 l -4.391907,-1.35912 q 0.817045,-2.86252 3.745165,-4.3353 2.931662,-1.49596 7.936001,-0.73078 2.710684,0.41447 4.354284,1.13998 1.647143,0.70234 2.662226,1.97191 1.018626,1.24641 1.263987,2.58797 0.27207,1.32193 -0.188452,4.3338 l -1.61537,10.56472 q -0.350706,2.29365 -0.02762,4.83259 z m -4.017562,-12.80118 q -10.240361,-1.56577 -10.987824,3.32273 -0.223176,1.4596 0.636815,2.65804 0.886701,1.17881 2.971843,1.49763 3.011871,0.46053 4.831458,-1.20547 1.846297,-1.68561 2.218258,-4.11828 z" style="font-style:normal;font-variant:normal;font-weight:normal;font-stretch:normal;font-size:48px;line-height:125%;font-family:'Franklin Gothic Medium';text-align:start;writing-mode:lr-tb;text-anchor:start;fill:#ffffff;fill-opacity:1;stroke:#ffffff;stroke-width:1.82500005;stroke-linecap:round;stroke-linejoin:round;stroke-miterlimit:4;stroke-dasharray:none;stroke-opacity:1" id="path941" />
      <path inkscape:connector-curvature="0" d="m 104.23381,730.32209 -5.295142,-0.71909 4.305052,-31.70121 5.29515,0.71909 z" style="font-style:normal;font-variant:normal;font-weight:normal;font-stretch:normal;font-size:48px;line-height:125%;font-family:'Franklin Gothic Medium';text-align:start;writing-mode:lr-tb;text-anchor:start;fill:#ffffff;fill-opacity:1;stroke:#ffffff;stroke-width:1.82500005;stroke-linecap:round;stroke-linejoin:round;stroke-miterlimit:4;stroke-dasharray:none;stroke-opacity:1" id="path943" />
      <path inkscape:connector-curvature="0" d="m 119.13837,705.57665 -5.30245,-0.66311 0.68929,-5.51176 5.30244,0.66311 z m -3.28065,26.23316 -5.30245,-0.66311 2.93746,-23.48891 5.30245,0.66311 z" style="font-style:normal;font-variant:normal;font-weight:normal;font-stretch:normal;font-size:48px;line-height:125%;font-family:'Franklin Gothic Medium';text-align:start;writing-mode:lr-tb;text-anchor:start;fill:#ffffff;fill-opacity:1;stroke:#ffffff;stroke-width:1.82500005;stroke-linecap:round;stroke-linejoin:round;stroke-miterlimit:4;stroke-dasharray:none;stroke-opacity:1" id="path945" />
      <path inkscape:connector-curvature="0" d="m 137.97666,726.71919 4.72977,1.17077 q -1.27679,3.09174 -4.20376,4.87375 -2.92697,1.78202 -7.00483,1.34169 -4.89343,-0.52838 -7.52132,-4.13603 -2.62789,-3.60765 -2.02151,-9.22345 0.5762,-5.33617 3.95958,-8.5069 3.38338,-3.17072 8.53313,-2.61466 5.03325,0.54348 7.4105,4.28908 2.37726,3.74561 1.79352,9.15169 l -0.0887,0.60333 -16.14832,-1.74367 q -0.25916,2.40011 0.0276,3.89265 0.31004,1.49505 1.54582,2.71288 1.23577,1.21782 3.26305,1.43673 3.93805,0.42522 5.72551,-3.24786 z m 0.43364,-7.07245 q 0.25096,-2.54244 -1.09006,-4.31383 -1.31772,-1.76887 -3.53142,-2.0079 -2.19039,-0.23652 -3.82197,1.1196 -1.62906,1.33282 -2.18228,4.05478 z" style="font-style:normal;font-variant:normal;font-weight:normal;font-stretch:normal;font-size:48px;line-height:125%;font-family:'Franklin Gothic Medium';text-align:start;writing-mode:lr-tb;text-anchor:start;fill:#ffffff;fill-opacity:1;stroke:#ffffff;stroke-width:1.82500005;stroke-linecap:round;stroke-linejoin:round;stroke-miterlimit:4;stroke-dasharray:none;stroke-opacity:1" id="path947" />
      <path inkscape:connector-curvature="0" d="m 166.81243,736.88653 -5.32495,-0.44782 1.23939,-14.73704 q 0.19641,-2.33551 -0.77971,-3.59361 -0.97416,-1.28146 -2.49224,-1.40913 -2.0786,-0.17481 -3.79659,1.51528 -1.71799,1.6901 -2.02637,5.35684 l -1.0194,12.12127 -5.32495,-0.44783 1.98381,-23.5886 4.85785,0.40855 -0.45962,5.46508 q 3.04656,-5.74145 7.64751,-5.3545 3.10622,0.26123 5.13661,2.40768 2.05374,2.14842 1.6393,7.07634 z" style="font-style:normal;font-variant:normal;font-weight:normal;font-stretch:normal;font-size:48px;line-height:125%;font-family:'Franklin Gothic Medium';text-align:start;writing-mode:lr-tb;text-anchor:start;fill:#ffffff;fill-opacity:1;stroke:#ffffff;stroke-width:1.82500005;stroke-linecap:round;stroke-linejoin:round;stroke-miterlimit:4;stroke-dasharray:none;stroke-opacity:1" id="path949" />
      <path inkscape:connector-curvature="0" d="m 196.32643,734.48576 -0.22332,4.1659 q -2.41479,0.38691 -3.72541,0.31666 -2.15316,-0.11542 -3.65265,-1.04076 -1.49824,-0.94875 -2.14472,-2.46209 -0.62183,-1.53548 -0.45622,-4.6248 l 0.65614,-12.24024 -2.94889,-0.15807 0.22205,-4.14249 3.25315,0.17438 0.82143,-6.12888 4.39786,-0.16326 -0.35128,6.55309 4.75099,0.25468 -0.22206,4.14249 -4.75099,-0.25468 -0.61851,11.53813 q -0.11918,2.22337 0.63264,3.08516 0.77648,0.83964 3.02326,0.96008 0.6319,0.0339 1.33653,0.0247 z" style="font-style:normal;font-variant:normal;font-weight:normal;font-stretch:normal;font-size:48px;line-height:125%;font-family:'Franklin Gothic Medium';text-align:start;writing-mode:lr-tb;text-anchor:start;fill:#ffffff;fill-opacity:1;stroke:#ffffff;stroke-width:1.82500005;stroke-linecap:round;stroke-linejoin:round;stroke-miterlimit:4;stroke-dasharray:none;stroke-opacity:1" id="path951" />
      <path inkscape:connector-curvature="0" d="m 215.24171,731.82492 4.80249,0.82309 q -1.04815,3.17654 -3.83752,5.16705 -2.78937,1.99052 -6.88848,1.84845 -4.91892,-0.17048 -7.80265,-3.5771 -2.88373,-3.40661 -2.68809,-9.05166 0.18591,-5.36397 3.3293,-8.77276 3.1434,-3.40879 8.31998,-3.22938 5.05946,0.17535 7.70328,3.73781 2.64381,3.56247 2.45547,8.9967 l -0.0445,0.6082 -16.23244,-0.56259 q -0.0836,2.41262 0.3111,3.8803 0.41813,1.46849 1.73935,2.59305 1.32122,1.12456 3.35905,1.19519 3.95856,0.1372 5.47369,-3.65635 z m -0.0828,-7.08524 q 0.0651,-2.55397 -1.40145,-4.22295 -1.44308,-1.66818 -3.66831,-1.7453 -2.2018,-0.0763 -3.73025,1.39507 -1.52763,1.44795 -1.88108,4.20299 z" style="font-style:normal;font-variant:normal;font-weight:normal;font-stretch:normal;font-size:48px;line-height:125%;font-family:'Franklin Gothic Medium';text-align:start;writing-mode:lr-tb;text-anchor:start;fill:#ffffff;fill-opacity:1;stroke:#ffffff;stroke-width:1.82500005;stroke-linecap:round;stroke-linejoin:round;stroke-miterlimit:4;stroke-dasharray:none;stroke-opacity:1" id="path953" />
      <path inkscape:connector-curvature="0" d="m 238.91604,731.10126 4.58782,0.52364 q -0.94381,4.44216 -3.52382,6.54427 -2.58,2.10211 -6.18912,2.05896 -4.89809,-0.0586 -7.50374,-3.65248 -2.58194,-3.61707 -2.52,-8.79639 0.0639,-5.34337 2.98825,-8.80083 2.92436,-3.45747 7.72871,-3.40003 7.73382,0.0925 9.11275,8.2658 l -4.60098,0.57785 q -0.55665,-4.41323 -4.28295,-4.45778 -2.71855,-0.0325 -3.98924,2.34309 -1.24696,2.35245 -1.28732,5.72721 -0.0429,3.58568 1.1994,5.54598 1.26571,1.96059 3.56242,1.98805 3.51538,0.042 4.71782,-4.46734 z" style="font-style:normal;font-variant:normal;font-weight:normal;font-stretch:normal;font-size:48px;line-height:125%;font-family:'Franklin Gothic Medium';text-align:start;writing-mode:lr-tb;text-anchor:start;fill:#ffffff;fill-opacity:1;stroke:#ffffff;stroke-width:1.82500005;stroke-linecap:round;stroke-linejoin:round;stroke-miterlimit:4;stroke-dasharray:none;stroke-opacity:1" id="path955" />
      <path inkscape:connector-curvature="0" d="m 267.4286,739.63133 -5.34342,0.0594 -0.17213,-15.49123 q -0.0279,-2.50766 -1.11712,-3.50343 -1.06608,-1.01947 -2.49568,-1.00358 -2.27329,0.0253 -3.80002,1.84702 -1.52673,1.82176 -1.48064,5.96995 l 0.13645,12.28049 -5.34342,0.0594 -0.35545,-31.99021 5.34342,-0.0594 0.13854,12.46799 q 1.93529,-5.1312 6.92717,-5.18666 7.28862,-0.081 7.38158,8.28568 z" style="font-style:normal;font-variant:normal;font-weight:normal;font-stretch:normal;font-size:48px;line-height:125%;font-family:'Franklin Gothic Medium';text-align:start;writing-mode:lr-tb;text-anchor:start;fill:#ffffff;fill-opacity:1;stroke:#ffffff;stroke-width:1.82500005;stroke-linecap:round;stroke-linejoin:round;stroke-miterlimit:4;stroke-dasharray:none;stroke-opacity:1" id="path957" />
      <path inkscape:connector-curvature="0" d="m 293.47768,738.78216 -5.34037,0.1902 -0.5264,-14.77969 q -0.0834,-2.34226 -1.20258,-3.47502 -1.11999,-1.15618 -2.64246,-1.10195 -2.08462,0.0742 -3.58886,1.9571 -1.50425,1.88286 -1.37327,5.56022 l 0.43297,12.15635 -5.34037,0.19021 -0.84258,-23.65687 4.87191,-0.17353 0.19521,5.4809 q 2.34034,-6.0637 6.9546,-6.22805 3.11521,-0.11095 5.38702,1.77813 2.29523,1.88825 2.47125,6.83043 z" style="font-style:normal;font-variant:normal;font-weight:normal;font-stretch:normal;font-size:48px;line-height:125%;font-family:'Franklin Gothic Medium';text-align:start;writing-mode:lr-tb;text-anchor:start;fill:#ffffff;fill-opacity:1;stroke:#ffffff;stroke-width:1.82500005;stroke-linecap:round;stroke-linejoin:round;stroke-miterlimit:4;stroke-dasharray:none;stroke-opacity:1" id="path959" />
      <path inkscape:connector-curvature="0" d="m 309.11666,738.41452 q -5.2407,0.3124 -8.22596,-3.28978 -2.98527,-3.60218 -3.27536,-8.46854 -0.3124,-5.2407 2.52127,-8.908 2.85707,-3.6687 7.8638,-3.96716 4.74938,-0.28312 7.99309,2.92799 3.26709,3.20971 3.59066,8.63758 0.33332,5.59164 -2.64491,9.19712 -2.95623,3.5807 -7.82259,3.87079 z m -0.075,-4.4096 q 5.38107,-0.32078 4.9027,-8.34559 -0.21617,-3.62638 -1.62707,-5.63191 -1.4123,-2.02893 -4.07944,-1.86994 -2.76073,0.16457 -3.96459,2.41989 -1.20526,2.23192 -0.99188,5.81151 0.23012,3.86033 1.75521,5.8121 1.54849,1.95038 4.00507,1.80394 z" style="font-style:normal;font-variant:normal;font-weight:normal;font-stretch:normal;font-size:48px;line-height:125%;font-family:'Franklin Gothic Medium';text-align:start;writing-mode:lr-tb;text-anchor:start;fill:#ffffff;fill-opacity:1;stroke:#ffffff;stroke-width:1.82500005;stroke-linecap:round;stroke-linejoin:round;stroke-miterlimit:4;stroke-dasharray:none;stroke-opacity:1" id="path961" />
      <path inkscape:connector-curvature="0" d="m 330.50456,736.44128 -5.32806,0.40915 -2.4495,-31.89828 5.32806,-0.40914 z" style="font-style:normal;font-variant:normal;font-weight:normal;font-stretch:normal;font-size:48px;line-height:125%;font-family:'Franklin Gothic Medium';text-align:start;writing-mode:lr-tb;text-anchor:start;fill:#ffffff;fill-opacity:1;stroke:#ffffff;stroke-width:1.82500005;stroke-linecap:round;stroke-linejoin:round;stroke-miterlimit:4;stroke-dasharray:none;stroke-opacity:1" id="path963" />
      <path inkscape:connector-curvature="0" d="m 346.1482,735.58006 q -5.22707,0.49011 -8.33288,-3.00867 -3.10581,-3.49878 -3.56091,-8.35249 -0.49011,-5.22707 2.21745,-8.98844 2.7309,-3.76357 7.72462,-4.23179 4.73703,-0.44416 8.08786,2.655 3.37416,3.09697 3.88177,8.51072 0.52293,5.5771 -2.33121,9.2816 -2.83298,3.67897 -7.6867,4.13407 z m -0.22465,-4.40451 q 5.36708,-0.50324 4.6166,-8.50719 -0.33913,-3.61695 -1.8173,-5.57344 -1.48035,-1.97982 -4.14056,-1.73039 -2.75354,0.25818 -3.88016,2.55306 -1.12881,2.27155 -0.79405,5.84183 0.36101,3.8503 1.95148,5.74918 1.61379,1.89669 4.06399,1.66695 z" style="font-style:normal;font-variant:normal;font-weight:normal;font-stretch:normal;font-size:48px;line-height:125%;font-family:'Franklin Gothic Medium';text-align:start;writing-mode:lr-tb;text-anchor:start;fill:#ffffff;fill-opacity:1;stroke:#ffffff;stroke-width:1.82500005;stroke-linecap:round;stroke-linejoin:round;stroke-miterlimit:4;stroke-dasharray:none;stroke-opacity:1" id="path965" />
      <path inkscape:connector-curvature="0" d="m 380.35391,703.00381 0.47429,4.07404 -1.62962,0.18972 q -1.07089,0.12467 -1.85589,0.47561 -0.76172,0.34823 -1.36736,1.83448 3.05924,1.95624 3.38446,4.74988 0.36317,3.11955 -2.029,5.47447 -2.36889,2.35221 -6.67574,2.8536 -1.86243,0.21682 -4.42388,-0.0985 -1.54289,0.93469 -1.36131,2.49446 0.10028,0.86137 0.97583,1.49092 0.87554,0.62954 2.48188,0.44253 l 6.98408,-0.81306 q 3.58516,-0.41737 5.82737,1.20926 2.26277,1.60064 2.58257,4.34771 0.38756,3.32908 -2.45395,5.87789 -2.81824,2.54609 -8.87111,3.25075 -11.38406,1.32529 -12.12394,-5.03022 -0.36588,-3.14284 2.8666,-5.17086 -2.40516,-1.60766 -2.64095,-3.63305 -0.35775,-3.07299 3.17898,-5.3252 -3.48961,-1.59939 -3.89343,-5.06815 -0.34148,-2.93332 1.81518,-5.28441 2.15666,-2.3511 7.04551,-2.92025 2.23491,-0.26018 4.59657,-0.0396 0.54782,-4.61776 5.13404,-5.15168 z m -10.29754,16.53606 q 4.33013,-0.50409 3.85584,-4.57814 -0.18158,-1.55978 -1.40043,-2.50329 -1.19556,-0.94623 -3.2675,-0.70502 -2.09523,0.24392 -3.12915,1.49688 -1.01065,1.25026 -0.81551,2.92644 0.20056,1.72274 1.46596,2.66083 1.2654,0.93809 3.29079,0.7023 z m -4.47039,12.27113 q -1.01877,1.18042 -0.90494,2.15819 0.187,1.60634 2.23692,2.59467 2.05262,1.01162 6.21979,0.52649 6.12271,-0.71278 5.75683,-3.85562 -0.13551,-1.16401 -1.27416,-1.62135 -1.14135,-0.48062 -2.51489,-0.32072 l -5.63383,0.65588 q -1.60634,0.187 -3.88572,-0.13754 z" style="font-style:normal;font-variant:normal;font-weight:normal;font-stretch:normal;font-size:48px;line-height:125%;font-family:'Franklin Gothic Medium';text-align:start;writing-mode:lr-tb;text-anchor:start;fill:#ffffff;fill-opacity:1;stroke:#ffffff;stroke-width:1.82500005;stroke-linecap:round;stroke-linejoin:round;stroke-miterlimit:4;stroke-dasharray:none;stroke-opacity:1" id="path967" />
      <path inkscape:connector-curvature="0" d="m 401.14132,704.70139 -5.47336,27.95272 q -0.4993,2.5758 -1.77802,4.12273 -1.25232,1.56698 -3.89955,1.92906 -1.04496,0.14293 -3.06422,0.25353 l -0.57489,-4.20305 2.53747,-0.29976 q 1.67193,-0.22869 2.38523,-0.89399 0.73969,-0.64525 1.01355,-2.10205 0.27385,-1.4568 0.24209,-1.68902 -0.0191,-0.13932 -0.68457,-1.37302 l -11.0688,-20.91165 5.54988,-0.7591 7.80456,14.68721 2.78435,-16.13555 z" style="font-style:normal;font-variant:normal;font-weight:normal;font-stretch:normal;font-size:48px;line-height:125%;font-family:'Franklin Gothic Medium';text-align:start;writing-mode:lr-tb;text-anchor:start;fill:#ffffff;fill-opacity:1;stroke:#ffffff;stroke-width:1.82500005;stroke-linecap:round;stroke-linejoin:round;stroke-miterlimit:4;stroke-dasharray:none;stroke-opacity:1" id="path969" />
    </g>
    <path inkscape:connector-curvature="0" id="path3573" d="m -218.52806,54.282125 c 16.09618,-0.840349 25.29127,-0.160366 36.61822,0.399866" style="fill:none;fill-opacity:0.75;fill-rule:evenodd;stroke:none;stroke-width:0.19455761px;stroke-linecap:butt;stroke-linejoin:miter;stroke-opacity:1" />
    <g aria-label="CAUTION:" transform="matrix(0.1945576,0,0,0.1945576,-249.45852,-21.88949)" style="font-style:normal;font-variant:normal;font-weight:normal;font-stretch:normal;font-size:48px;line-height:0%;font-family:'Franklin Gothic Medium';text-align:start;writing-mode:lr-tb;text-anchor:start;fill:#ffffff;fill-opacity:1;stroke:#ffffff;stroke-width:1.82500005;stroke-linecap:round;stroke-linejoin:round;stroke-miterlimit:4;stroke-dasharray:none;stroke-opacity:1" id="text3575">
      <path inkscape:connector-curvature="0" d="m 178.22556,375.9232 5.36424,0.35203 q -0.30532,4.82262 -3.37708,8.07704 -3.04936,3.22999 -8.24752,3.4572 -4.37863,0.19139 -7.21441,-1.88989 -2.81236,-2.0823 -4.45229,-5.78766 -1.63993,-3.70536 -1.83848,-8.2479 -0.31932,-7.30553 2.94654,-12.02295 3.26485,-4.74084 9.32937,-5.00592 4.75327,-0.20776 8.04225,2.58097 3.28898,2.78872 4.34697,8.20863 l -5.31409,0.79531 q -1.7914,-7.1708 -6.82566,-6.95076 -3.23129,0.14124 -4.90223,3.2406 -1.64854,3.07492 -1.39882,8.78822 0.25382,5.80695 2.30384,8.69675 2.049,2.86639 5.21004,2.72822 2.52884,-0.11053 4.22139,-2.1786 1.69256,-2.06807 1.80594,-4.84129 z" id="path895" />
      <path inkscape:connector-curvature="0" d="m 213.57084,386.03047 -6.16218,0.15229 -2.74211,-7.55174 -12.30093,0.30402 -2.31885,7.67682 -4.92037,0.1216 9.82351,-32.24474 7.09939,-0.17546 z m -10.56477,-11.97701 -5.0153,-14.15384 -4.30998,14.38431 z" id="path897" />
      <path inkscape:connector-curvature="0" d="m 238.27426,353.97058 0.0599,20.5546 q 0.0122,4.17186 -0.91877,6.42458 -0.93094,2.25272 -3.62146,3.9012 -2.66715,1.62497 -6.53432,1.63624 -3.91405,0.0114 -6.44939,-1.38746 -2.5119,-1.39893 -3.62056,-3.83321 -1.10873,-2.45771 -1.1198,-6.25457 l -0.0611,-20.97648 5.88279,-0.0171 0.0599,20.5546 q 0.0123,4.21873 1.774,5.54954 1.78506,1.3073 4.1288,1.30047 2.6953,-0.008 4.30839,-1.41882 1.61301,-1.43439 1.60126,-5.46563 l -0.0599,-20.5546 z" id="path899" />
      <path inkscape:connector-curvature="0" d="m 256.17689,386.2436 -6.18653,-0.10975 0.47974,-27.04262 -8.50648,-0.15091 0.0877,-4.94453 23.19947,0.41156 -0.0877,4.94453 -8.50648,-0.1509 z" id="path901" />
      <path inkscape:connector-curvature="0" d="m 274.00505,386.7219 -5.76285,-0.17898 0.99317,-31.97677 5.76285,0.17899 z" id="path903" />
      <path inkscape:connector-curvature="0" d="m 292.83621,387.94575 q -6.36903,-0.27577 -9.72137,-5.20666 -3.32892,-4.92987 -3.02475,-11.95454 0.30213,-6.97783 4.27481,-11.49771 3.9737,-4.54329 10.15541,-4.27563 6.22854,0.26969 9.63074,5.13236 3.42664,4.84026 3.12146,11.88834 -0.32039,7.39932 -4.288,11.80212 -3.94318,4.3804 -10.1483,4.11172 z m 0.24758,-4.63425 q 3.11427,0.13484 5.38002,-2.34759 2.26576,-2.48244 2.55877,-9.24953 0.23827,-5.50266 -1.40647,-8.69398 -1.64372,-3.21474 -5.39021,-3.37696 -7.39932,-0.32039 -7.91539,11.59813 -0.25042,5.78364 1.49305,8.86195 1.76789,3.0559 5.28023,3.20798 z" id="path905" />
      <path inkscape:connector-curvature="0" d="m 336.11637,389.59189 -5.59427,-0.28572 -11.08236,-21.03016 q -0.25697,-0.48248 -0.83516,-1.56808 -0.25698,-0.48248 -0.79075,-1.51887 l -1.19548,23.40699 -4.63458,-0.2367 1.63183,-31.95055 6.3667,0.32517 10.22737,19.39067 q 0.12849,0.24124 1.86068,3.54483 l 1.1369,-22.26005 4.54096,0.23193 z" id="path907" />
      <path inkscape:connector-curvature="0" d="m 349.40375,368.13459 -0.28847,5.82881 -5.78199,-0.28616 0.28847,-5.8288 z m -0.80285,16.22234 -0.28963,5.85221 -5.78199,-0.28616 0.28963,-5.85221 z" id="path909" />
    </g>
  </g>
  <g id="g1439">
    <path inkscape:connector-curvature="0" d="m 153.42102,74.838272 q -0.86695,1.4862 -1.29716,2.96587 -0.4237,1.47316 -0.4237,2.97239 0,1.49272 0.4237,2.97239 0.43021,1.47968 1.29716,2.97891 h -1.04295 q -0.98427,-1.55138 -1.46664,-3.01802 -0.48236,-1.47316 -0.48236,-2.93328 0,-1.4536 0.48236,-2.92676 0.48237,-1.47316 1.46664,-3.0115 z" style="font-style:normal;font-variant:normal;font-weight:normal;font-stretch:normal;font-size:13.3496809px;line-height:1.25;font-family:monospace;-inkscape-font-specification:monospace;letter-spacing:0px;word-spacing:0px;fill:#ffffff;fill-opacity:1;stroke:none;stroke-width:0.25030652" id="path1185" />
    <path inkscape:connector-curvature="0" d="m 162.0253,77.921472 v 1.17332 q -0.51495,-0.29985 -1.03642,-0.44977 -0.52147,-0.14993 -1.0625,-0.14993 -0.8148,0 -1.21894,0.26726 -0.39762,0.26073 -0.39762,0.80176 0,0.48888 0.29984,0.73006 0.29985,0.24118 1.49272,0.46933 l 0.48236,0.0913 q 0.89302,0.16948 1.34931,0.67792 0.4628,0.50843 0.4628,1.32323 0,1.08206 -0.76917,1.69479 -0.76917,0.60621 -2.13803,0.60621 -0.54103,0 -1.1342,-0.11733 -0.59318,-0.11082 -1.28413,-0.33896 v -1.2385 q 0.6714,0.34548 1.28413,0.52148 0.61273,0.16947 1.16027,0.16947 0.79525,0 1.23198,-0.3194 0.43673,-0.32592 0.43673,-0.90606 0,-0.83435 -1.59701,-1.15375 l -0.0522,-0.013 -0.44977,-0.0913 q -1.03642,-0.20207 -1.51227,-0.67791 -0.47584,-0.48236 -0.47584,-1.3102 0,-1.04946 0.71051,-1.61656 0.7105,-0.57362 2.02722,-0.57362 0.58666,0 1.12768,0.11081 0.54103,0.1043 1.0625,0.3194 z" style="font-style:normal;font-variant:normal;font-weight:normal;font-stretch:normal;font-size:13.3496809px;line-height:1.25;font-family:monospace;-inkscape-font-specification:monospace;letter-spacing:0px;word-spacing:0px;fill:#ffffff;fill-opacity:1;stroke:none;stroke-width:0.25030652" id="path1187" />
    <path inkscape:connector-curvature="0" d="m 170.6296,84.596322 q -0.48237,0.28029 -0.99732,0.41717 -0.50844,0.14341 -1.04295,0.14341 -1.69478,0 -2.65299,-1.01687 -0.95168,-1.01687 -0.95168,-2.81595 0,-1.79908 0.95168,-2.81595 0.95821,-1.01687 2.65299,-1.01687 0.52799,0 1.02991,0.13689 0.50192,0.13688 1.01036,0.42369 v 1.25805 q -0.47585,-0.42369 -0.95821,-0.61273 -0.47585,-0.18903 -1.08206,-0.18903 -1.12768,0 -1.73389,0.73006 -0.60621,0.73006 -0.60621,2.08589 0,1.34931 0.60621,2.08589 0.61273,0.73006 1.73389,0.73006 0.62577,0 1.12117,-0.18904 0.49539,-0.19555 0.9191,-0.59969 z" style="font-style:normal;font-variant:normal;font-weight:normal;font-stretch:normal;font-size:13.3496809px;line-height:1.25;font-family:monospace;-inkscape-font-specification:monospace;letter-spacing:0px;word-spacing:0px;fill:#ffffff;fill-opacity:1;stroke:none;stroke-width:0.25030652" id="path1189" />
    <path inkscape:connector-curvature="0" d="m 178.59508,80.444092 v 4.52377 h -1.2059 v -4.52377 q 0,-0.98427 -0.34548,-1.44708 -0.34547,-0.46281 -1.08205,-0.46281 -0.84088,0 -1.29717,0.5997 -0.44976,0.59317 -0.44976,1.70782 v 4.12614 h -1.19939 v -10.14262 h 1.19939 v 3.93711 q 0.3194,-0.62577 0.86694,-0.94517 0.54755,-0.32592 1.29716,-0.32592 1.11465,0 1.6622,0.73658 0.55406,0.73006 0.55406,2.21625 z" style="font-style:normal;font-variant:normal;font-weight:normal;font-stretch:normal;font-size:13.3496809px;line-height:1.25;font-family:monospace;-inkscape-font-specification:monospace;letter-spacing:0px;word-spacing:0px;fill:#ffffff;fill-opacity:1;stroke:none;stroke-width:0.25030652" id="path1191" />
    <path inkscape:connector-curvature="0" d="m 187.02337,81.017712 v 0.58666 h -5.19517 v 0.0391 q 0,1.19287 0.61925,1.84471 0.62577,0.65184 1.75997,0.65184 0.57362,0 1.19939,-0.18252 0.62576,-0.18251 1.33627,-0.55406 v 1.19287 q -0.68444,0.28029 -1.32324,0.41717 -0.63228,0.14341 -1.22546,0.14341 -1.7013,0 -2.6595,-1.01687 -0.95821,-1.02339 -0.95821,-2.81595 0,-1.74693 0.93865,-2.78988 0.93865,-1.04294 2.50307,-1.04294 1.39493,0 2.1967,0.94517 0.80828,0.94517 0.80828,2.58128 z m -1.19939,-0.35199 q -0.0261,-1.05598 -0.50191,-1.60353 -0.46933,-0.55406 -1.35583,-0.55406 -0.86695,0 -1.42753,0.57362 -0.56058,0.57362 -0.66488,1.59049 z" style="font-style:normal;font-variant:normal;font-weight:normal;font-stretch:normal;font-size:13.3496809px;line-height:1.25;font-family:monospace;-inkscape-font-specification:monospace;letter-spacing:0px;word-spacing:0px;fill:#ffffff;fill-opacity:1;stroke:none;stroke-width:0.25030652" id="path1193" />
    <path inkscape:connector-curvature="0" d="m 192.21201,78.410352 q 0.22163,-0.46932 0.56058,-0.69095 0.34548,-0.22814 0.82784,-0.22814 0.87999,0 1.2385,0.68443 0.36503,0.67792 0.36503,2.56173 v 4.23044 h -1.09509 v -4.17829 q 0,-1.54486 -0.176,-1.91641 -0.16948,-0.37807 -0.62577,-0.37807 -0.52147,0 -0.71702,0.40414 -0.18903,0.39763 -0.18903,1.89034 v 4.17829 h -1.09509 v -4.17829 q 0,-1.56442 -0.18904,-1.92945 -0.18251,-0.36503 -0.66488,-0.36503 -0.47584,0 -0.66487,0.40414 -0.18252,0.39763 -0.18252,1.89034 v 4.17829 h -1.08857 v -7.3006 h 1.08857 v 0.62576 q 0.21511,-0.3911 0.53451,-0.59317 0.32592,-0.20859 0.73658,-0.20859 0.4954,0 0.82132,0.22814 0.33244,0.22815 0.51495,0.69095 z" style="font-style:normal;font-variant:normal;font-weight:normal;font-stretch:normal;font-size:13.3496809px;line-height:1.25;font-family:monospace;-inkscape-font-specification:monospace;letter-spacing:0px;word-spacing:0px;fill:#ffffff;fill-opacity:1;stroke:none;stroke-width:0.25030652" id="path1195" />
    <path inkscape:connector-curvature="0" d="m 203.0847,81.017712 v 0.58666 h -5.19516 v 0.0391 q 0,1.19287 0.61925,1.84471 0.62576,0.65184 1.75997,0.65184 0.57362,0 1.19938,-0.18252 0.62577,-0.18251 1.33627,-0.55406 v 1.19287 q -0.68443,0.28029 -1.32323,0.41717 -0.63229,0.14341 -1.22546,0.14341 -1.7013,0 -2.65951,-1.01687 -0.9582,-1.02339 -0.9582,-2.81595 0,-1.74693 0.93865,-2.78988 0.93865,-1.04294 2.50306,-1.04294 1.39494,0 2.1967,0.94517 0.80828,0.94517 0.80828,2.58128 z m -1.19938,-0.35199 q -0.0261,-1.05598 -0.50192,-1.60353 -0.46932,-0.55406 -1.35582,-0.55406 -0.86695,0 -1.42753,0.57362 -0.56059,0.57362 -0.66488,1.59049 z" style="font-style:normal;font-variant:normal;font-weight:normal;font-stretch:normal;font-size:13.3496809px;line-height:1.25;font-family:monospace;-inkscape-font-specification:monospace;letter-spacing:0px;word-spacing:0px;fill:#ffffff;fill-opacity:1;stroke:none;stroke-width:0.25030652" id="path1197" />
  </g>
  <g id="g1430">
    <path inkscape:connector-curvature="0" d="m 216.47349,75.235892 v 3.61772 h -1.1342 v -3.61772 z" style="font-style:normal;font-variant:normal;font-weight:normal;font-stretch:normal;font-size:13.3496809px;line-height:1.25;font-family:monospace;-inkscape-font-specification:monospace;letter-spacing:0px;word-spacing:0px;fill:#ffffff;fill-opacity:1;stroke:none;stroke-width:0.25030652" id="path1199" />
    <path inkscape:connector-curvature="0" d="m 221.59696,77.667262 h 3.07016 v 6.36847 h 2.37922 v 0.93213 h -5.95782 v -0.93213 h 2.37922 v -5.43634 h -1.87078 z m 1.87078,-2.84202 h 1.19938 v 1.51878 h -1.19938 z" style="font-style:normal;font-variant:normal;font-weight:normal;font-stretch:normal;font-size:13.3496809px;line-height:1.25;font-family:monospace;-inkscape-font-specification:monospace;letter-spacing:0px;word-spacing:0px;fill:#ffffff;fill-opacity:1;stroke:none;stroke-width:0.25030652" id="path1201" />
    <path inkscape:connector-curvature="0" d="m 234.80975,80.444092 v 4.52377 h -1.20591 v -4.52377 q 0,-0.98427 -0.34547,-1.44708 -0.34548,-0.46281 -1.08206,-0.46281 -0.84087,0 -1.29716,0.5997 -0.44977,0.59317 -0.44977,1.70782 v 4.12614 H 229.23 v -7.3006 h 1.19938 v 1.09509 q 0.31941,-0.62577 0.86695,-0.94517 0.54755,-0.32592 1.29716,-0.32592 1.11465,0 1.66219,0.73658 0.55407,0.73006 0.55407,2.21625 z" style="font-style:normal;font-variant:normal;font-weight:normal;font-stretch:normal;font-size:13.3496809px;line-height:1.25;font-family:monospace;-inkscape-font-specification:monospace;letter-spacing:0px;word-spacing:0px;fill:#ffffff;fill-opacity:1;stroke:none;stroke-width:0.25030652" id="path1203" />
    <path inkscape:connector-curvature="0" d="m 239.99188,75.594412 v 2.07285 h 2.72469 v 0.93213 h -2.72469 v 3.96318 q 0,0.80829 0.30636,1.12769 0.30637,0.3194 1.06902,0.3194 h 1.34931 v 0.9582 h -1.46664 q -1.34931,0 -1.90337,-0.54102 -0.55407,-0.54103 -0.55407,-1.86427 v -3.96318 h -1.949 v -0.93213 h 1.949 v -2.07285 z" style="font-style:normal;font-variant:normal;font-weight:normal;font-stretch:normal;font-size:13.3496809px;line-height:1.25;font-family:monospace;-inkscape-font-specification:monospace;letter-spacing:0px;word-spacing:0px;fill:#ffffff;fill-opacity:1;stroke:none;stroke-width:0.25030652" id="path1205" />
    <path inkscape:connector-curvature="0" d="m 251.26871,81.017712 v 0.58666 h -5.19516 v 0.0391 q 0,1.19287 0.61924,1.84471 0.62577,0.65184 1.75997,0.65184 0.57362,0 1.19939,-0.18252 0.62576,-0.18251 1.33627,-0.55406 v 1.19287 q -0.68443,0.28029 -1.32324,0.41717 -0.63228,0.14341 -1.22545,0.14341 -1.70131,0 -2.65951,-1.01687 -0.95821,-1.02339 -0.95821,-2.81595 0,-1.74693 0.93865,-2.78988 0.93865,-1.04294 2.50307,-1.04294 1.39494,0 2.1967,0.94517 0.80828,0.94517 0.80828,2.58128 z m -1.19939,-0.35199 q -0.0261,-1.05598 -0.50191,-1.60353 -0.46933,-0.55406 -1.35583,-0.55406 -0.86695,0 -1.42753,0.57362 -0.56058,0.57362 -0.66487,1.59049 z" style="font-style:normal;font-variant:normal;font-weight:normal;font-stretch:normal;font-size:13.3496809px;line-height:1.25;font-family:monospace;-inkscape-font-specification:monospace;letter-spacing:0px;word-spacing:0px;fill:#ffffff;fill-opacity:1;stroke:none;stroke-width:0.25030652" id="path1207" />
    <path inkscape:connector-curvature="0" d="m 259.57966,79.173012 q -0.38458,-0.29985 -0.7822,-0.43674 -0.39763,-0.13688 -0.87347,-0.13688 -1.12116,0 -1.71434,0.70399 -0.59317,0.70398 -0.59317,2.03374 v 3.63074 h -1.20591 v -7.3006 h 1.20591 v 1.42753 q 0.29984,-0.77569 0.91909,-1.18635 0.62577,-0.41718 1.47968,-0.41718 0.44325,0 0.82783,0.11081 0.38459,0.11082 0.73658,0.34548 z" style="font-style:normal;font-variant:normal;font-weight:normal;font-stretch:normal;font-size:13.3496809px;line-height:1.25;font-family:monospace;-inkscape-font-specification:monospace;letter-spacing:0px;word-spacing:0px;fill:#ffffff;fill-opacity:1;stroke:none;stroke-width:0.25030652" id="path1209" />
    <path inkscape:connector-curvature="0" d="m 264.6575,81.298012 h -0.39762 q -1.04947,0 -1.58397,0.37154 -0.52799,0.36503 -0.52799,1.09509 0,0.65836 0.39762,1.02339 0.39762,0.36503 1.10161,0.36503 0.99079,0 1.55789,-0.68443 0.56711,-0.69095 0.57362,-1.90337 v -0.26725 z m 2.32707,-0.4954 v 4.16525 h -1.20591 v -1.08205 q -0.38458,0.65184 -0.97124,0.96472 -0.58013,0.30637 -1.41449,0.30637 -1.11465,0 -1.77952,-0.62577 -0.66488,-0.63228 -0.66488,-1.68826 0,-1.21894 0.8148,-1.85123 0.82132,-0.63228 2.40529,-0.63228 h 1.61004 v -0.18904 q -0.007,-0.87346 -0.44325,-1.26457 -0.43673,-0.39762 -1.39493,-0.39762 -0.61273,0 -1.2385,0.176 -0.62577,0.17599 -1.21894,0.51495 v -1.19938 q 0.66488,-0.25422 1.27109,-0.37807 0.61273,-0.13037 1.18635,-0.13037 0.90605,0 1.54486,0.26725 0.64532,0.26726 1.04294,0.80177 0.2477,0.32592 0.35199,0.80828 0.1043,0.47584 0.1043,1.43405 z" style="font-style:normal;font-variant:normal;font-weight:normal;font-stretch:normal;font-size:13.3496809px;line-height:1.25;font-family:monospace;-inkscape-font-specification:monospace;letter-spacing:0px;word-spacing:0px;fill:#ffffff;fill-opacity:1;stroke:none;stroke-width:0.25030652" id="path1211" />
    <path inkscape:connector-curvature="0" d="m 275.02827,84.596322 q -0.48236,0.28029 -0.99732,0.41717 -0.50843,0.14341 -1.04294,0.14341 -1.69479,0 -2.65299,-1.01687 -0.95169,-1.01687 -0.95169,-2.81595 0,-1.79908 0.95169,-2.81595 0.9582,-1.01687 2.65299,-1.01687 0.52799,0 1.02991,0.13689 0.50191,0.13688 1.01035,0.42369 v 1.25805 q -0.47585,-0.42369 -0.95821,-0.61273 -0.47584,-0.18903 -1.08205,-0.18903 -1.12768,0 -1.7339,0.73006 -0.60621,0.73006 -0.60621,2.08589 0,1.34931 0.60621,2.08589 0.61273,0.73006 1.7339,0.73006 0.62576,0 1.12116,-0.18904 0.4954,-0.19555 0.9191,-0.59969 z" style="font-style:normal;font-variant:normal;font-weight:normal;font-stretch:normal;font-size:13.3496809px;line-height:1.25;font-family:monospace;-inkscape-font-specification:monospace;letter-spacing:0px;word-spacing:0px;fill:#ffffff;fill-opacity:1;stroke:none;stroke-width:0.25030652" id="path1213" />
    <path inkscape:connector-curvature="0" d="m 280.14521,75.594412 v 2.07285 h 2.72469 v 0.93213 h -2.72469 v 3.96318 q 0,0.80829 0.30637,1.12769 0.30636,0.3194 1.06902,0.3194 h 1.3493 v 0.9582 h -1.46664 q -1.3493,0 -1.90337,-0.54102 -0.55406,-0.54103 -0.55406,-1.86427 v -3.96318 h -1.949 v -0.93213 h 1.949 v -2.07285 z" style="font-style:normal;font-variant:normal;font-weight:normal;font-stretch:normal;font-size:13.3496809px;line-height:1.25;font-family:monospace;-inkscape-font-specification:monospace;letter-spacing:0px;word-spacing:0px;fill:#ffffff;fill-opacity:1;stroke:none;stroke-width:0.25030652" id="path1215" />
    <path inkscape:connector-curvature="0" d="m 285.8423,77.667262 h 3.07016 v 6.36847 h 2.37922 v 0.93213 h -5.95782 v -0.93213 h 2.37922 v -5.43634 h -1.87078 z m 1.87078,-2.84202 h 1.19938 v 1.51878 h -1.19938 z" style="font-style:normal;font-variant:normal;font-weight:normal;font-stretch:normal;font-size:13.3496809px;line-height:1.25;font-family:monospace;-inkscape-font-specification:monospace;letter-spacing:0px;word-spacing:0px;fill:#ffffff;fill-opacity:1;stroke:none;stroke-width:0.25030652" id="path1217" />
    <path inkscape:connector-curvature="0" d="m 292.8561,77.667262 h 1.24501 l 2.11848,6.12729 2.125,-6.12729 h 1.24501 l -2.59432,7.3006 h -1.54486 z" style="font-style:normal;font-variant:normal;font-weight:normal;font-stretch:normal;font-size:13.3496809px;line-height:1.25;font-family:monospace;-inkscape-font-specification:monospace;letter-spacing:0px;word-spacing:0px;fill:#ffffff;fill-opacity:1;stroke:none;stroke-width:0.25030652" id="path1219" />
    <path inkscape:connector-curvature="0" d="m 307.48337,81.017712 v 0.58666 h -5.19516 v 0.0391 q 0,1.19287 0.61924,1.84471 0.62577,0.65184 1.75997,0.65184 0.57362,0 1.19939,-0.18252 0.62576,-0.18251 1.33627,-0.55406 v 1.19287 q -0.68443,0.28029 -1.32324,0.41717 -0.63228,0.14341 -1.22545,0.14341 -1.70131,0 -2.65951,-1.01687 -0.95821,-1.02339 -0.95821,-2.81595 0,-1.74693 0.93865,-2.78988 0.93865,-1.04294 2.50307,-1.04294 1.39494,0 2.1967,0.94517 0.80828,0.94517 0.80828,2.58128 z m -1.19938,-0.35199 q -0.0261,-1.05598 -0.50192,-1.60353 -0.46933,-0.55406 -1.35583,-0.55406 -0.86695,0 -1.42753,0.57362 -0.56058,0.57362 -0.66487,1.59049 z" style="font-style:normal;font-variant:normal;font-weight:normal;font-stretch:normal;font-size:13.3496809px;line-height:1.25;font-family:monospace;-inkscape-font-specification:monospace;letter-spacing:0px;word-spacing:0px;fill:#ffffff;fill-opacity:1;stroke:none;stroke-width:0.25030652" id="path1221" />
  </g>
  <g id="g1451">
    <path inkscape:connector-curvature="0" d="m 320.87217,75.235892 v 3.61772 h -1.1342 v -3.61772 z" style="font-style:normal;font-variant:normal;font-weight:normal;font-stretch:normal;font-size:13.3496809px;line-height:1.25;font-family:monospace;-inkscape-font-specification:monospace;letter-spacing:0px;word-spacing:0px;fill:#ffffff;fill-opacity:1;stroke:none;stroke-width:0.25030652" id="path1223" />
    <path inkscape:connector-curvature="0" d="m 328.32922,75.594412 v 2.07285 h 2.72469 v 0.93213 h -2.72469 v 3.96318 q 0,0.80829 0.30636,1.12769 0.30637,0.3194 1.06902,0.3194 h 1.34931 v 0.9582 h -1.46664 q -1.34931,0 -1.90337,-0.54102 -0.55407,-0.54103 -0.55407,-1.86427 v -3.96318 h -1.949 v -0.93213 h 1.949 v -2.07285 z" style="font-style:normal;font-variant:normal;font-weight:normal;font-stretch:normal;font-size:13.3496809px;line-height:1.25;font-family:monospace;-inkscape-font-specification:monospace;letter-spacing:0px;word-spacing:0px;fill:#ffffff;fill-opacity:1;stroke:none;stroke-width:0.25030652" id="path1225" />
    <path inkscape:connector-curvature="0" d="m 333.62868,82.204062 v -4.52377 h 1.19939 v 4.52377 q 0,0.98428 0.34547,1.44709 0.35199,0.4628 1.08205,0.4628 0.8474,0 1.29717,-0.59317 0.44977,-0.59969 0.44977,-1.71434 v -4.12615 h 1.2059 v 7.28757 h -1.2059 v -1.09509 q -0.31941,0.63229 -0.87347,0.95821 -0.54755,0.32592 -1.28412,0.32592 -1.12117,0 -1.66871,-0.73006 -0.54755,-0.73658 -0.54755,-2.22278 z" style="font-style:normal;font-variant:normal;font-weight:normal;font-stretch:normal;font-size:13.3496809px;line-height:1.25;font-family:monospace;-inkscape-font-specification:monospace;letter-spacing:0px;word-spacing:0px;fill:#ffffff;fill-opacity:1;stroke:none;stroke-width:0.25030652" id="path1227" />
    <path inkscape:connector-curvature="0" d="m 344.39056,75.594412 v 2.07285 h 2.72469 v 0.93213 h -2.72469 v 3.96318 q 0,0.80829 0.30636,1.12769 0.30637,0.3194 1.06902,0.3194 h 1.34931 v 0.9582 h -1.46664 q -1.34931,0 -1.90337,-0.54102 -0.55407,-0.54103 -0.55407,-1.86427 v -3.96318 h -1.949 v -0.93213 h 1.949 v -2.07285 z" style="font-style:normal;font-variant:normal;font-weight:normal;font-stretch:normal;font-size:13.3496809px;line-height:1.25;font-family:monospace;-inkscape-font-specification:monospace;letter-spacing:0px;word-spacing:0px;fill:#ffffff;fill-opacity:1;stroke:none;stroke-width:0.25030652" id="path1229" />
    <path inkscape:connector-curvature="0" d="m 352.43425,78.508132 q -0.91258,0 -1.3819,0.71051 -0.46932,0.7105 -0.46932,2.10544 0,1.38842 0.46932,2.10544 0.46932,0.71051 1.3819,0.71051 0.9191,0 1.38842,-0.71051 0.46932,-0.71702 0.46932,-2.10544 0,-1.39494 -0.46932,-2.10544 -0.46932,-0.71051 -1.38842,-0.71051 z m 0,-1.01687 q 1.51879,0 2.32055,0.98428 0.80828,0.98428 0.80828,2.84854 0,1.87078 -0.80176,2.85506 -0.80176,0.97776 -2.32707,0.97776 -1.51879,0 -2.32055,-0.97776 -0.80176,-0.98428 -0.80176,-2.85506 0,-1.86426 0.80176,-2.84854 0.80176,-0.98428 2.32055,-0.98428 z" style="font-style:normal;font-variant:normal;font-weight:normal;font-stretch:normal;font-size:13.3496809px;line-height:1.25;font-family:monospace;-inkscape-font-specification:monospace;letter-spacing:0px;word-spacing:0px;fill:#ffffff;fill-opacity:1;stroke:none;stroke-width:0.25030652" id="path1231" />
    <path inkscape:connector-curvature="0" d="m 363.97834,79.173012 q -0.38459,-0.29985 -0.78221,-0.43674 -0.39762,-0.13688 -0.87347,-0.13688 -1.12116,0 -1.71433,0.70399 -0.59318,0.70398 -0.59318,2.03374 v 3.63074 h -1.2059 v -7.3006 h 1.2059 v 1.42753 q 0.29985,-0.77569 0.9191,-1.18635 0.62576,-0.41718 1.47967,-0.41718 0.44325,0 0.82784,0.11081 0.38458,0.11082 0.73658,0.34548 z" style="font-style:normal;font-variant:normal;font-weight:normal;font-stretch:normal;font-size:13.3496809px;line-height:1.25;font-family:monospace;-inkscape-font-specification:monospace;letter-spacing:0px;word-spacing:0px;fill:#ffffff;fill-opacity:1;stroke:none;stroke-width:0.25030652" id="path1233" />
    <path inkscape:connector-curvature="0" d="m 366.14897,77.667262 h 3.07016 v 6.36847 h 2.37922 v 0.93213 h -5.95782 v -0.93213 h 2.37922 v -5.43634 h -1.87078 z m 1.87078,-2.84202 h 1.19938 v 1.51878 h -1.19938 z" style="font-style:normal;font-variant:normal;font-weight:normal;font-stretch:normal;font-size:13.3496809px;line-height:1.25;font-family:monospace;-inkscape-font-specification:monospace;letter-spacing:0px;word-spacing:0px;fill:#ffffff;fill-opacity:1;stroke:none;stroke-width:0.25030652" id="path1235" />
    <path inkscape:connector-curvature="0" d="m 377.08684,81.298012 h -0.39762 q -1.04946,0 -1.58397,0.37154 -0.52799,0.36503 -0.52799,1.09509 0,0.65836 0.39762,1.02339 0.39762,0.36503 1.10161,0.36503 0.9908,0 1.5579,-0.68443 0.5671,-0.69095 0.57362,-1.90337 v -0.26725 z m 2.32707,-0.4954 v 4.16525 h -1.2059 v -1.08205 q -0.38459,0.65184 -0.97124,0.96472 -0.58014,0.30637 -1.4145,0.30637 -1.11464,0 -1.77952,-0.62577 -0.66488,-0.63228 -0.66488,-1.68826 0,-1.21894 0.8148,-1.85123 0.82132,-0.63228 2.40529,-0.63228 h 1.61005 v -0.18904 q -0.007,-0.87346 -0.44325,-1.26457 -0.43674,-0.39762 -1.39494,-0.39762 -0.61273,0 -1.2385,0.176 -0.62576,0.17599 -1.21894,0.51495 v -1.19938 q 0.66488,-0.25422 1.27109,-0.37807 0.61273,-0.13037 1.18635,-0.13037 0.90606,0 1.54486,0.26725 0.64532,0.26726 1.04294,0.80177 0.2477,0.32592 0.352,0.80828 0.10429,0.47584 0.10429,1.43405 z" style="font-style:normal;font-variant:normal;font-weight:normal;font-stretch:normal;font-size:13.3496809px;line-height:1.25;font-family:monospace;-inkscape-font-specification:monospace;letter-spacing:0px;word-spacing:0px;fill:#ffffff;fill-opacity:1;stroke:none;stroke-width:0.25030652" id="path1237" />
    <path inkscape:connector-curvature="0" d="m 384.70685,82.321392 q 0,0.80829 0.29333,1.21894 0.29985,0.41066 0.87999,0.41066 h 1.40145 v 1.01687 h -1.51878 q -1.07554,0 -1.66871,-0.69095 -0.58666,-0.69095 -0.58666,-1.95552 v -6.62921 h -1.92293 v -0.93865 h 3.12231 z" style="font-style:normal;font-variant:normal;font-weight:normal;font-stretch:normal;font-size:13.3496809px;line-height:1.25;font-family:monospace;-inkscape-font-specification:monospace;letter-spacing:0px;word-spacing:0px;fill:#ffffff;fill-opacity:1;stroke:none;stroke-width:0.25030652" id="path1239" />
    <path inkscape:connector-curvature="0" d="m 390.84066,74.838272 h 1.04294 q 0.98428,1.53834 1.46664,3.0115 0.48236,1.47316 0.48236,2.92676 0,1.46664 -0.48236,2.9398 -0.48236,1.47316 -1.46664,3.0115 h -1.04294 q 0.86694,-1.51227 1.29064,-2.99194 0.43021,-1.47968 0.43021,-2.95936 0,-1.48619 -0.43021,-2.96587 -0.4237,-1.47967 -1.29064,-2.97239 z" style="font-style:normal;font-variant:normal;font-weight:normal;font-stretch:normal;font-size:13.3496809px;line-height:1.25;font-family:monospace;-inkscape-font-specification:monospace;letter-spacing:0px;word-spacing:0px;fill:#ffffff;fill-opacity:1;stroke:none;stroke-width:0.25030652" id="path1241" />
  </g>
  <text xml:space="preserve" style="font-style:normal;font-variant:normal;font-weight:normal;font-stretch:normal;font-size:65.05334473px;line-height:1.25;font-family:'TeX Gyre Schola';-inkscape-font-specification:'TeX Gyre Schola';letter-spacing:0px;word-spacing:0px;fill:#ffffff;fill-opacity:1;stroke:none;stroke-width:1.21975017" x="241.14722" y="63.249828" id="text1251"><tspan sodipodi:role="line" id="tspan1249" x="241.14722" y="63.249828" style="font-style:normal;font-variant:normal;font-weight:normal;font-stretch:normal;font-family:'TeX Gyre Schola';-inkscape-font-specification:'TeX Gyre Schola';fill:#ffffff;stroke-width:1.21975017"></tspan></text>
</svg>
